<?xml version="1.0" encoding="utf-8"?>
<!-- Generator: Adobe Illustrator 27.5.0, SVG Export Plug-In . SVG Version: 6.00 Build 0)  -->
<svg version="1.1" xmlns="http://www.w3.org/2000/svg" xmlns:xlink="http://www.w3.org/1999/xlink" x="0px" y="0px"
	 viewBox="0 0 588 500" style="enable-background:new 0 0 588 500;" xml:space="preserve">
<style type="text/css">
	.st0{fill:url(#SVGID_1_);}
	.st1{fill:#181C31;}
	.st2{fill:#292E45;}
	.st3{fill:#77F28A;}
	.st4{fill:#EF5C00;}
	.st5{fill:#FFDB26;}
	.st6{opacity:0.61;fill:#FFFFFF;}
	.st7{display:none;fill:none;stroke:#000000;stroke-width:5;stroke-miterlimit:10;}
	.st8{opacity:0.77;}
	.st9{fill:#4A6799;}
	.st10{opacity:0.56;fill:#F2F3F7;}
	.st11{opacity:0.31;fill:#FFFFFF;stroke:#2C49B8;stroke-miterlimit:10;}
	.st12{display:none;fill:#2C49B8;}
	.st13{font-family:'FiraSans-Book';}
	.st14{font-size:36.1559px;}
	.st15{fill:none;stroke:#E2E2E2;stroke-miterlimit:10;}
	.st16{fill:url(#SVGID_00000119107854220432295470000000515444571657866157_);}
	.st17{opacity:0.25;fill:#005DCC;}
	.st18{opacity:0.81;fill:#2546AF;}
	.st19{opacity:0.25;}
	.st20{opacity:0.63;}
	.st21{fill:#FFFFFF;}
	.st22{fill:#113468;}
	.st23{opacity:0.25;fill:#4368B1;}
	.st24{opacity:0.85;fill:#1839B2;}
	.st25{opacity:0.5;}
	.st26{fill:#121272;}
	.st27{opacity:0.82;fill:#7EABF1;}
	.st28{opacity:0.81;fill:#375BDD;}
	.st29{fill:#375BDD;}
	.st30{opacity:0.81;fill:#4862AC;}
	.st31{fill:#4862AC;}
</style>
<g id="Layer_1">
	
		<linearGradient id="SVGID_1_" gradientUnits="userSpaceOnUse" x1="-448" y1="580" x2="-448" y2="80" gradientTransform="matrix(-1 0 0 1 -154 -80)">
		<stop  offset="0" style="stop-color:#252A42;stop-opacity:0"/>
		<stop  offset="1" style="stop-color:#24283E"/>
	</linearGradient>
	<path class="st0" d="M580,500H8c-4.4,0-8-3.6-8-8V8c0-4.4,3.6-8,8-8h572c4.4,0,8,3.6,8,8v484C588,496.4,584.4,500,580,500z"/>
	<path class="st1" d="M127.3,58.3h340.4c1.3,0,2.6,0.5,3.5,1.5c0.9,0.9,1.5,2.2,1.5,3.5v20.2H122.3V63.3c0-1.3,0.5-2.6,1.5-3.5
		C124.7,58.9,126,58.3,127.3,58.3L127.3,58.3z"/>
	<g>
		<path class="st2" d="M122,83h350v322.2c0,1.3-0.5,2.5-1.5,3.4c-0.9,0.9-2.2,1.4-3.5,1.4H127c-1.3,0-2.6-0.5-3.5-1.4
			c-0.9-0.9-1.5-2.1-1.5-3.4V83z"/>
	</g>
	<path class="st3" d="M161.1,73.7c1.4,0,2.5-1.1,2.5-2.5c0-1.4-1.1-2.5-2.5-2.5c-1.4,0-2.5,1.1-2.5,2.5
		C158.7,72.6,159.8,73.7,161.1,73.7z"/>
	<path class="st4" d="M143.2,73.7c1.4,0,2.5-1.1,2.5-2.5c0-1.4-1.1-2.5-2.5-2.5c-1.4,0-2.5,1.1-2.5,2.5
		C140.7,72.6,141.8,73.7,143.2,73.7z"/>
	<path class="st5" d="M152,73.7c1.4,0,2.5-1.1,2.5-2.5c0-1.4-1.1-2.5-2.5-2.5c-1.4,0-2.5,1.1-2.5,2.5
		C149.5,72.6,150.6,73.7,152,73.7z"/>
	<path class="st6" d="M421.3,120.9c0.9,0,1.7-0.8,1.7-1.7c0-0.9-0.8-1.7-1.7-1.7c-0.9,0-1.7,0.8-1.7,1.7
		C419.6,120.1,420.4,120.9,421.3,120.9z"/>
	<path class="st6" d="M426.4,120.9c0.9,0,1.7-0.8,1.7-1.7c0-0.9-0.8-1.7-1.7-1.7c-0.9,0-1.7,0.8-1.7,1.7
		C424.7,120.1,425.5,120.9,426.4,120.9z"/>
	<path class="st6" d="M431.5,120.9c0.9,0,1.7-0.8,1.7-1.7c0-0.9-0.8-1.7-1.7-1.7c-0.9,0-1.7,0.8-1.7,1.7
		C429.8,120.1,430.5,120.9,431.5,120.9z"/>
</g>
<g id="Layer_2">
</g>
<g id="Layer_3">
	<g>
		<g>
			<g>
				<path class="st7" d="M466.5,361.5H217.3c-4.1,0-7.4-3.3-7.4-7.4v-180c0-4.1,3.3-7.4,7.4-7.4h249.2c4.1,0,7.4,3.3,7.4,7.4v180
					C473.9,358.2,470.6,361.5,466.5,361.5z"/>
				<g class="st8">
					
						<ellipse transform="matrix(4.385800e-02 -0.999 0.999 4.385800e-02 148.6904 661.0814)" class="st9" cx="419.7" cy="252.9" rx="71.8" ry="77.5"/>
				</g>
				<path class="st10" d="M490.3,251.9l-18.1-0.2l-0.2,0c-0.2-7.9-1.3-15.6-3.3-22.9c-0.2-0.8-0.5-1.7-0.8-2.7l16.2-0.2
					c0.3,0,0.6-0.3,0.6-0.6l-0.1-0.6l-16.7-0.2l-0.6,0c-2.3-6.6-5.2-12.7-8.9-18.1c-1.8-2.6-3.7-5.1-5.8-7.4l5.3-0.1
					c2.5,0,4.9-0.1,7.4-0.1c0.3,0,0.5-0.3,0.6-0.6l-0.1-0.6l-0.5,0c-2.4,0-4.9-0.1-7.3-0.1l-6.8-0.1c-3.2-3.3-6.6-6.1-10.2-8.3
					c-3.6-2.2-7.3-3.9-11.2-5.1c-4-1.2-8.1-1.8-12.2-1.8c-4.1,0-8.2,0.6-12.2,1.8c-3.9,1.2-7.7,2.9-11.2,5.1
					c-3.6,2.3-7,5.1-10.2,8.4l-2.8,0c-2.5,0-5.1,0.1-7.6,0.1c-0.3,0-0.6,0.3-0.6,0.6l0,0.3l0.4,0.3l0.2,0c2.6,0,5.1,0.1,7.7,0.1
					l1.3,0c-2.1,2.3-4.1,4.8-5.8,7.4c-3.7,5.4-6.7,11.6-8.9,18.2l-13,0.1c-0.3,0-0.6,0.3-0.6,0.6c0,0.3,0.3,0.6,0.6,0.6l12.5,0.1
					c-0.3,1-0.6,1.9-0.8,2.7c-1.1,3.9-1.9,8-2.5,12.1c-0.5,3.5-0.7,7.1-0.8,10.9l-14,0.1c-0.3,0-0.6,0.3-0.6,0.6
					c0,0.3,0.3,0.6,0.6,0.6l13.9,0.1c0,4.1,0.3,8.3,0.8,12.3c0.5,4.1,1.4,8.1,2.5,12.1c0.1,0.4,0.3,0.9,0.4,1.3l-12,0.1
					c-0.3,0-0.6,0.3-0.6,0.6c0,0.3,0.3,0.6,0.6,0.6l12.5,0.1c2.3,7.2,5.5,13.8,9.4,19.6c1.4,2,2.9,4,4.5,5.9H376
					c-0.4,0-0.8,0.4-0.8,0.8c0,0.4,0.4,0.8,0.8,0.8h6.7c3.5,3.9,7.4,7.2,11.6,9.8c3.6,2.2,7.4,4,11.2,5.1c4,1.2,8.1,1.8,12.2,1.8
					c0.3,0,0.6,0,0.9,0l0.4,0c0.4,0,0.7,0.1,0.9,0.1c0.4,0,0.8-0.1,1.2-0.1c3-0.2,6-0.8,8.8-1.7c3.9-1.2,7.7-2.9,11.2-5.1
					c4.1-2.6,8-5.9,11.5-9.7h15.1c0.4,0,0.8-0.4,0.8-0.8c0-0.4-0.4-0.8-0.8-0.8H454c1.6-1.9,3.1-3.9,4.5-5.9
					c3.9-5.8,7.1-12.4,9.4-19.6l16.2-0.2c0.3,0,0.6-0.3,0.6-0.6l-0.1-0.6l-16.3-0.2c0.1-0.4,0.3-0.9,0.4-1.3
					c2.1-7.7,3.3-15.9,3.3-24.3l17.7-0.2h0c0.3,0,0.6-0.3,0.6-0.6L490.3,251.9z M407.9,305.8c-0.6-1.8-1.1-3.6-1.5-5.5
					c-0.7-2.9-1.4-5.9-1.9-9.2c-0.6-3.3-1.1-6.8-1.5-10.7l16.6,0l17,0c-0.4,3.8-0.9,7.2-1.5,10.4c-0.6,3.3-1.2,6.3-1.9,9.2
					c-0.5,2-1,3.9-1.6,5.8H407.9z M401.5,253.4l18,0l18.5,0c0,6.4-0.2,12.7-0.7,18.7c-0.2,2-0.4,4.2-0.6,6.6l-17.2,0l-16.2,0l-0.6,0
					c-0.2-2.3-0.4-4.4-0.6-6.3c-0.5-6.1-0.7-12.5-0.7-18.9V253.4z M401.5,251.6c0-9.2,0.4-17.5,1.2-25.3l16.8,0l16.9,0
					c0.3,2.7,0.6,5.4,0.8,8c0.5,5.6,0.7,11.4,0.7,17.3l-18.5,0L401.5,251.6z M419.5,224.6l-16.2,0l-0.5,0c0.3-3,0.7-5.9,1.1-8.7
					c0.5-3.3,1.1-6.3,1.7-9.3c0.6-2.6,1.2-5,2-7.3l11.8,0l11,0c0.8,2.3,1.5,4.6,2.2,7.2c0.8,2.9,1.4,5.9,2.1,9.2
					c0.5,2.8,1,5.9,1.4,8.9L419.5,224.6z M440.1,251.6c-0.1-6-0.3-11.9-0.8-17.5c-0.2-2.5-0.5-5.2-0.9-7.9l27.3-0.1
					c0.4,1.2,0.7,2.3,1,3.3c1.9,7.1,3,14.6,3.1,22.3L440.1,251.6z M425.7,189.2c1.5,2.2,2.8,4.9,4.2,8.3l0,0l-10.4,0l-11.3,0
					c1.2-3.6,2.4-6.2,3.8-8.4c1-1.5,1.9-2.6,2.9-3.4c0.6-0.5,1.2-0.9,1.8-1.1c0.7-0.3,1.4-0.4,2-0.4c0.6,0,1.3,0.2,2,0.5
					c0.6,0.3,1.2,0.7,1.8,1.2C423.7,186.7,424.7,187.8,425.7,189.2z M398.5,226.3l2.2,0c-0.3,2.7-0.6,5.5-0.8,8.2
					c-0.2,3.1-0.4,6.3-0.5,9.5c-0.1,2.8-0.2,5.3-0.2,7.7l-32.4,0.1l-1.2,0c0.1-3.6,0.3-7.1,0.8-10.5c0.5-4.1,1.3-8,2.3-11.8
					c0.3-1,0.6-2,1-3.3l17.5,0.1C391,226.3,394.7,226.3,398.5,226.3z M366.4,265.2c-0.5-3.9-0.8-7.9-0.8-11.9l33.6,0.1l0,0.2
					c0,6.5,0.3,12.9,0.8,19c0.2,1.9,0.4,3.9,0.6,6.2l-1.8,0c-3.9,0-7.8,0-11.7,0l-16.2,0.1l-1.8,0c-0.2-0.6-0.4-1.3-0.5-1.9
					C367.7,273.2,367,269.3,366.4,265.2z M439.4,272.2c0.5-6.1,0.7-12.5,0.7-18.9l29.7-0.1c0,8.2-1.1,16.2-3.1,23.7
					c-0.2,0.6-0.4,1.2-0.5,1.9l-27.4-0.1C439,276.3,439.2,274.2,439.4,272.2z M438.1,224.6c-0.5-3.2-1-6.3-1.6-9.3
					c-0.7-3.3-1.4-6.4-2.2-9.3c-0.7-2.4-1.4-4.6-2.1-6.8l2.8,0c2.5,0,5,0,7.4,0l7.9-0.1c2.4,2.6,4.7,5.4,6.6,8.4
					c3.4,5.1,6.1,10.9,8.2,17.1L438.1,224.6z M442.5,197.6c-2.5,0-5,0-7.4,0l-3.4,0l0,0c-0.1-0.2-0.1-0.4-0.2-0.6
					c-1.4-3.5-2.8-6.3-4.4-8.5c-1.1-1.6-2.2-2.7-3.3-3.7c-0.2-0.2-0.4-0.3-0.6-0.5c2.2,0.3,4.4,0.8,6.5,1.4c3.7,1.1,7.4,2.8,10.8,5
					c3,1.9,5.9,4.3,8.6,7L442.5,197.6z M414.9,184c-0.3,0.2-0.6,0.4-0.8,0.6c-1.1,0.9-2.2,2.1-3.2,3.7c-1.5,2.3-2.8,5-4.1,8.7
					c-0.1,0.2-0.1,0.3-0.2,0.5l-1.7,0c-2.8,0-5.6,0-8.4,0l-10.1,0.1c2.7-2.7,5.6-5.1,8.6-7c3.5-2.2,7.1-3.9,10.8-5
					C408.9,184.7,411.9,184.2,414.9,184z M396.6,199.2c2.7,0,5.4,0,8.1,0l1.3,0c-0.7,2.2-1.3,4.5-1.9,6.9c-0.7,2.9-1.3,6-1.9,9.4
					c-0.5,2.9-0.9,5.9-1.3,9l-2.4,0c-3.8,0-7.5,0-11.3,0l-16.2,0.1l-0.9,0c2.1-6.2,4.9-12,8.2-17.1v0c2-3,4.2-5.9,6.6-8.5
					L396.6,199.2z M387.2,280.4c3.8,0,7.5,0,11.3,0l2.4,0c0.5,4,1,7.6,1.6,11c0.6,3.3,1.3,6.4,2,9.3c0.4,1.7,0.9,3.4,1.4,5h-22.2
					c-1.9-2.2-3.7-4.5-5.3-7c-3.6-5.5-6.5-11.7-8.7-18.5L387.2,280.4z M406.5,307.4c0.3,0.8,0.6,1.7,0.9,2.5
					c1.4,3.6,2.7,6.3,4.3,8.7c1.1,1.6,2.1,2.8,3.3,3.7c0,0,0.1,0.1,0.1,0.1c-3.1-0.2-6.2-0.8-9.2-1.7c-3.7-1.1-7.4-2.8-10.8-5
					c-3.2-2-6.3-4.6-9.2-7.6c-0.2-0.2-0.5-0.5-0.7-0.7H406.5z M413.1,317.6c-1.5-2.2-2.8-4.9-4-8.3c-0.2-0.6-0.5-1.3-0.7-1.9H431
					c-0.2,0.5-0.4,1.1-0.6,1.6c-1.3,3.5-2.5,6.1-4,8.4c-1,1.5-1.9,2.6-2.9,3.4c-0.6,0.5-1.2,0.9-1.8,1.2c-0.3,0.1-0.6,0.3-1,0.3
					c-0.5,0-1.1,0.1-1.6,0.1l-0.1,0c-0.4-0.1-0.9-0.2-1.2-0.3c-0.6-0.2-1.2-0.6-1.8-1.1C415,320.2,414.1,319.1,413.1,317.6z
					 M425,321.8c1-0.9,1.9-2,2.9-3.5c1.5-2.3,2.9-5.1,4.2-8.7c0.3-0.7,0.5-1.5,0.8-2.2h17.3c-0.2,0.3-0.5,0.5-0.7,0.8
					c-2.9,3-6,5.5-9.2,7.6c-3.4,2.2-7.1,3.8-10.8,5C428,321.1,426.5,321.5,425,321.8z M433.4,305.8c0.5-1.7,1.1-3.5,1.5-5.3
					c0.7-2.9,1.4-6,2-9.3c0.6-3.4,1.1-6.9,1.6-10.7l27.1-0.1c-2.2,6.8-5.1,13-8.7,18.5c-1.6,2.5-3.4,4.8-5.3,7H433.4z"/>
			</g>
			<g>
				<path class="st11" d="M386.7,140.9l-193.1,0.9c-10.3,0-18.7-8.4-18.7-18.7l0,0c0-10.3,8.4-18.7,18.7-18.7l193.1-0.9
					c10.3,0,18.7,8.4,18.7,18.7v0C405.4,132.5,397,140.9,386.7,140.9z"/>
				<text transform="matrix(1 0 0 1 193.7067 134.0056)" class="st12 st13 st14">www</text>
				<g>
					<circle class="st15" cx="382" cy="121.3" r="8"/>
					<line class="st15" x1="387.2" y1="127.4" x2="392" y2="132.3"/>
				</g>
			</g>
		</g>
	</g>
	<g>
		
			<linearGradient id="SVGID_00000078024302378495566180000005248664285686412972_" gradientUnits="userSpaceOnUse" x1="26.131" y1="533.3793" x2="214.7784" y2="291.31">
			<stop  offset="0" style="stop-color:#7EABF1;stop-opacity:0.82"/>
			<stop  offset="1" style="stop-color:#558ECB;stop-opacity:0"/>
		</linearGradient>
		<path style="fill:url(#SVGID_00000078024302378495566180000005248664285686412972_);" d="M181.4,398.9L76,336.3
			c-6.7-4-6.6-13.7,0.2-17.5L181.1,260c3.1-1.7,6.8-1.7,9.9,0l105.5,59.3c6.8,3.8,6.9,13.5,0.2,17.5l-104.9,62.1
			C188.6,400.7,184.6,400.7,181.4,398.9z"/>
		<g>
			<g>
				<path class="st17" d="M196,160.2v62.3c0,3.5,4.3,7.7,6.8,6.7l7.4-3.1c0.7-0.3,1.7-0.2,2.8,0.4l83.3,48c2.2,1.3,4,0.5,4-1.7
					v-52.6c0-2.2-1.8-5-4-6.2L200,158.5C197.8,157.2,196,158,196,160.2z"/>
				<path class="st18" d="M188.6,164.2v62.3c0,3.5,4.3,7.7,6.8,6.7l7.4-3.1c0.7-0.3,1.7-0.2,2.8,0.4l83.3,48c2.2,1.3,4,0.5,4-1.7
					v-52.6c0-2.2-1.8-5-4-6.2l-96.3-55.4C190.4,161.3,188.6,162,188.6,164.2z"/>
				<path class="st19" d="M288.9,218l-96.3-55.4c-2.2-1.3-4-0.5-4,1.7v1c0.3,0.1,0.6,0.2,0.8,0.4l96.3,55.4c2.2,1.3,4,4,4,6.2v51.5
					c1.8,0.6,3.1-0.2,3.1-2.1v-52.6C292.9,222,291.1,219.2,288.9,218z"/>
				<g>
					<g class="st20">
						<path class="st21" d="M219.6,204.2l46.9,27.1c0.7,0.4,1.3,0.2,1.3-0.5l0,0c0-0.7-0.6-1.6-1.3-2l-46.9-27.1
							c-0.7-0.4-1.3-0.2-1.3,0.5l0,0C218.3,202.9,218.9,203.8,219.6,204.2z"/>
					</g>
					<g class="st20">
						<path class="st21" d="M219.6,211.4l46.9,27.1c0.7,0.4,1.3,0.2,1.3-0.5l0,0c0-0.7-0.6-1.6-1.3-2l-46.9-27.1
							c-0.7-0.4-1.3-0.2-1.3,0.5l0,0C218.3,210.1,218.9,211,219.6,211.4z"/>
					</g>
					<g class="st20">
						<path class="st22" d="M219.2,218.3l34.7,19.9c0.5,0.3,0.9,0.1,0.9-0.4v-0.7c0-0.5-0.4-1.1-0.9-1.4l-34.7-19.9
							c-0.5-0.3-0.9-0.1-0.9,0.4v0.7C218.3,217.4,218.7,218,219.2,218.3z"/>
					</g>
				</g>
			</g>
			<g>
				<path class="st23" d="M200.8,258.8v62.3c0,3.5-4.3,2.9-6.8-1.1l-7.4-11.6c-0.7-1.2-1.7-2.2-2.8-2.8L101,258.3
					c-2.2-1.2-4-4-4-6.2v-52.6c0-2.2,1.8-2.9,4-1.7l95.8,54.8C199.1,253.8,200.8,256.6,200.8,258.8z"/>
				<path class="st24" d="M194.7,264.9v62.2c0,3.5-4.3,2.9-6.8-1.1l-7.4-11.6c-0.7-1.2-1.7-2.2-2.8-2.8l-82.9-47.4
					c-2.2-1.2-4-4-4-6.2v-52.6c0-2.2,1.8-2.9,4-1.7l95.8,54.8C193,260,194.7,262.7,194.7,264.9z"/>
				<path class="st19" d="M190.8,258.7l-95.8-54.8c-2.2-1.2-4-0.5-4,1.7v1.3c0.2,0.1,0.4,0.2,0.6,0.3l95.8,54.8c2.2,1.2,4,4,4,6.2
					v60.9c1.8,0.7,3.3,0.1,3.3-2v-62.2C194.7,262.7,193,260,190.8,258.7z"/>
				<g>
					<g class="st20">
						<path class="st21" d="M160.6,267.1l-46.4-26.5c-0.7-0.4-1.3-1.3-1.3-2v0c0-0.7,0.6-0.9,1.3-0.5l46.4,26.5
							c0.7,0.4,1.3,1.3,1.3,2l0,0C161.9,267.2,161.3,267.5,160.6,267.1z"/>
					</g>
					<g class="st20">
						<path class="st21" d="M160.6,274.2l-46.4-26.5c-0.7-0.4-1.3-1.3-1.3-2l0,0c0-0.7,0.6-0.9,1.3-0.5l46.4,26.5
							c0.7,0.4,1.3,1.3,1.3,2l0,0C161.9,274.4,161.3,274.6,160.6,274.2z"/>
					</g>
					<g class="st25">
						<path class="st26" d="M161,281.6l-34.7-19.8c-0.5-0.3-0.9-0.9-0.9-1.4v-0.7c0-0.5,0.4-0.7,0.9-0.4l34.7,19.8
							c0.5,0.3,0.9,0.9,0.9,1.4v0.7C161.9,281.7,161.5,281.9,161,281.6z"/>
					</g>
				</g>
			</g>
			<g>
				<path class="st27" d="M324.7,357.8l-107.6-57.4c-1.7-0.9-3.2-3.1-3.2-4.8v-38.6c0-1.7,1.4-2.4,3.2-1.5l107.6,57.4
					c1.7,0.9,3.2,3.1,3.2,4.8v38.6C327.9,358.1,326.5,358.7,324.7,357.8z"/>
				<path class="st19" d="M324.7,312.9l-107.6-57.4c-1.7-0.9-3.2-0.3-3.2,1.5v2.1l107.3,57.3c1.7,0.9,3.2,3.1,3.2,4.8v36.5l0.3,0.1
					c1.7,0.9,3.2,0.3,3.2-1.5v-38.6C327.9,316,326.5,313.8,324.7,312.9z"/>
				<g>
					<path class="st28" d="M277.6,303.7L240,283.6c-0.5-0.3-0.9-0.8-0.9-1.3l0,0c0-0.5,0.4-0.7,0.9-0.4l37.6,20.1
						c0.5,0.3,0.9,0.8,0.9,1.3l0,0C278.5,303.7,278.1,303.9,277.6,303.7z"/>
					<path class="st28" d="M277.6,309.5L240,289.5c-0.5-0.3-0.9-0.8-0.9-1.3l0,0c0-0.5,0.4-0.7,0.9-0.4l37.6,20.1
						c0.5,0.3,0.9,0.8,0.9,1.3l0,0C278.5,309.6,278.1,309.8,277.6,309.5z"/>
					<path class="st28" d="M277.6,315.4L240,295.4c-0.5-0.3-0.9-0.8-0.9-1.3l0,0c0-0.5,0.4-0.7,0.9-0.4l37.6,20.1
						c0.5,0.3,0.9,0.8,0.9,1.3l0,0C278.5,315.5,278.1,315.7,277.6,315.4z"/>
					<path class="st29" d="M259.8,311.8l-20-10.7c-0.3-0.2-0.6-0.6-0.6-1v-0.5c0-0.3,0.3-0.5,0.6-0.3l20,10.7c0.3,0.2,0.6,0.6,0.6,1
						v0.5C260.4,311.8,260.1,312,259.8,311.8z"/>
				</g>
			</g>
			<g>
				<path class="st27" d="M160.4,206.7l-70.9-42c-1.7-1-3.2-3.3-3.2-5v-38.6c0-1.7,1.4-2.3,3.2-1.3l70.9,42c1.7,1,3.2,3.3,3.2,5
					v38.6C163.6,207.1,162.1,207.7,160.4,206.7z"/>
				<path class="st19" d="M160.4,161.8l-70.9-42c-1.6-0.9-2.9-0.5-3.1,0.8l69.5,41.2c1.7,1,3.2,3.3,3.2,5v38.6c0,0.2,0,0.3,0,0.5
					l1.4,0.8c1.7,1,3.2,0.5,3.2-1.3v-38.6C163.6,165,162.1,162.8,160.4,161.8z"/>
				<g>
					<path class="st30" d="M143.9,167.1l-37.6-22.2c-0.5-0.3-0.9-0.9-0.9-1.4l0,0c0-0.5,0.4-0.6,0.9-0.4l37.6,22.2
						c0.5,0.3,0.9,0.9,0.9,1.4l0,0C144.7,167.2,144.4,167.3,143.9,167.1z"/>
					<path class="st30" d="M143.9,172.9l-37.6-22.2c-0.5-0.3-0.9-0.9-0.9-1.4l0,0c0-0.5,0.4-0.6,0.9-0.4l37.6,22.2
						c0.5,0.3,0.9,0.9,0.9,1.4l0,0C144.7,173.1,144.4,173.2,143.9,172.9z"/>
					<path class="st30" d="M143.9,178.8l-37.6-22.2c-0.5-0.3-0.9-0.9-0.9-1.4l0,0c0-0.5,0.4-0.6,0.9-0.4l37.6,22.2
						c0.5,0.3,0.9,0.9,0.9,1.4v0C144.7,178.9,144.4,179.1,143.9,178.8z"/>
					<path class="st31" d="M126,174.2l-20-11.8c-0.3-0.2-0.6-0.7-0.6-1v-0.5c0-0.3,0.3-0.5,0.6-0.3l20,11.8c0.3,0.2,0.6,0.7,0.6,1
						v0.5C126.7,174.2,126.4,174.4,126,174.2z"/>
				</g>
			</g>
		</g>
	</g>
</g>
</svg>
