<?xml version="1.0" encoding="utf-8"?>
<!-- Generator: Adobe Illustrator 27.5.0, SVG Export Plug-In . SVG Version: 6.00 Build 0)  -->
<svg version="1.1" xmlns="http://www.w3.org/2000/svg" xmlns:xlink="http://www.w3.org/1999/xlink" x="0px" y="0px"
	 viewBox="0 0 588 527" style="enable-background:new 0 0 588 527;" xml:space="preserve">
<style type="text/css">
	.st0{display:none;fill:url(#SVGID_1_);}
	.st1{fill:url(#SVGID_00000084521048900920206750000017678010749994269841_);}
	.st2{fill:#1D2433;}
	.st3{fill:#FFFFFF;}
	.st4{fill:#77F28A;}
	.st5{fill:#EF5C00;}
	.st6{fill:#FFDB26;}
	.st7{fill:#262D3F;}
	.st8{opacity:0.26;}
	.st9{display:none;fill:none;stroke:#000000;stroke-width:5;stroke-miterlimit:10;}
	.st10{fill:#FFFFFF;stroke:#2C49B8;stroke-miterlimit:10;}
	.st11{display:none;fill:#2C49B8;enable-background:new    ;}
	.st12{font-family:'ArialMT';}
	.st13{font-size:36.1559px;}
	.st14{fill:none;stroke:#2C49B8;stroke-width:1.6765;stroke-miterlimit:10;}
	.st15{fill:none;stroke:#2C49B8;stroke-width:1.6765;stroke-linecap:round;stroke-linejoin:round;stroke-miterlimit:10;}
	.st16{fill:url(#SVGID_00000061471063647090799130000003971775420772784020_);}
	.st17{fill:#007CFF;}
	.st18{opacity:0.6;fill:#FFFFFF;enable-background:new    ;}
	.st19{fill:#398DEA;}
	.st20{opacity:0.3;fill:#FFFFFF;enable-background:new    ;}
	.st21{opacity:0.1;enable-background:new    ;}
	.st22{opacity:0.8;fill:#FFFFFF;enable-background:new    ;}
	.st23{opacity:0.9;fill:#FFFFFF;enable-background:new    ;}
	.st24{opacity:0.25;fill:#005DCC;enable-background:new    ;}
	.st25{opacity:0.81;fill:#2546AF;enable-background:new    ;}
	.st26{opacity:0.25;enable-background:new    ;}
	.st27{opacity:0.63;}
	.st28{fill:#113468;}
	.st29{opacity:0.25;fill:#4368B1;enable-background:new    ;}
	.st30{opacity:0.85;fill:#1839B2;enable-background:new    ;}
	.st31{opacity:0.5;}
	.st32{fill:#121272;}
	.st33{opacity:0.82;fill:#7EABF1;enable-background:new    ;}
	.st34{opacity:0.81;fill:#375BDD;enable-background:new    ;}
	.st35{fill:#375BDD;}
	.st36{opacity:0.81;fill:#4862AC;enable-background:new    ;}
	.st37{fill:#4862AC;}
	.st38{opacity:0.35;}
	.st39{opacity:0.6;}
	.st40{fill:#7EABF1;}
	.st41{opacity:0.82;}
</style>
<g id="Layer_1">
	<g id="Layer_1_00000031197792720363701660000007240287958300251554_">
		
			<linearGradient id="SVGID_1_" gradientUnits="userSpaceOnUse" x1="-1778" y1="-52" x2="-1778" y2="448" gradientTransform="matrix(-1 0 0 -1 -1484 448)">
			<stop  offset="0" style="stop-color:#FFFFFF"/>
			<stop  offset="1" style="stop-color:#E9FAFF"/>
		</linearGradient>
		<path class="st0" d="M580,500H8c-4.4,0-8-3.6-8-8V8c0-4.4,3.6-8,8-8h572c4.4,0,8,3.6,8,8v484C588,496.4,584.4,500,580,500z"/>
		
			<linearGradient id="SVGID_00000124142486048632292690000012426269664035680948_" gradientUnits="userSpaceOnUse" x1="-1778.75" y1="-52.5" x2="-1778.75" y2="447.5" gradientTransform="matrix(-1 0 0 -1 -1484 448)">
			<stop  offset="0" style="stop-color:#5E81F7;stop-opacity:0"/>
			<stop  offset="1" style="stop-color:#2546AF;stop-opacity:0.81"/>
		</linearGradient>
		<path style="fill:url(#SVGID_00000124142486048632292690000012426269664035680948_);" d="M580,500.5H9.5c-4.4,0-8-3.6-8-8V8.5
			c0-4.4,3.6-8,8-8H580c4.4,0,8,3.6,8,8v484C588,496.9,584.4,500.5,580,500.5z"/>
		<path class="st2" d="M127.3,68.3h340.4c1.3,0,2.6,0.5,3.5,1.5c0.9,0.9,1.5,2.2,1.5,3.5v20.2H122.3V73.3c0-1.3,0.5-2.6,1.5-3.5
			C124.7,68.9,126,68.3,127.3,68.3L127.3,68.3z"/>
		<g>
			<path class="st3" d="M122,93h350v322.2c0,1.3-0.5,2.5-1.5,3.4c-0.9,0.9-2.2,1.4-3.5,1.4H127c-1.3,0-2.6-0.5-3.5-1.4
				s-1.5-2.1-1.5-3.4V93z"/>
		</g>
		<path class="st4" d="M161.1,83.7c1.4,0,2.5-1.1,2.5-2.5s-1.1-2.5-2.5-2.5s-2.5,1.1-2.5,2.5S159.8,83.7,161.1,83.7z"/>
		<path class="st5" d="M143.2,83.7c1.4,0,2.5-1.1,2.5-2.5s-1.1-2.5-2.5-2.5s-2.5,1.1-2.5,2.5S141.8,83.7,143.2,83.7z"/>
		<path class="st6" d="M152,83.7c1.4,0,2.5-1.1,2.5-2.5s-1.1-2.5-2.5-2.5s-2.5,1.1-2.5,2.5S150.6,83.7,152,83.7z"/>
		<path class="st7" d="M421.3,130.9c0.9,0,1.7-0.8,1.7-1.7s-0.8-1.7-1.7-1.7c-0.9,0-1.7,0.8-1.7,1.7S420.4,130.9,421.3,130.9z"/>
		<path class="st7" d="M426.4,130.9c0.9,0,1.7-0.8,1.7-1.7s-0.8-1.7-1.7-1.7c-0.9,0-1.7,0.8-1.7,1.7S425.5,130.9,426.4,130.9z"/>
		<path class="st7" d="M431.5,130.9c0.9,0,1.7-0.8,1.7-1.7s-0.8-1.7-1.7-1.7c-0.9,0-1.7,0.8-1.7,1.7S430.5,130.9,431.5,130.9z"/>
	</g>
	<g id="Layer_3" class="st8">
		<g>
			<g>
				<g>
					<path class="st9" d="M428,373.8H178.8c-4.1,0-7.4-3.3-7.4-7.4v-180c0-4.1,3.3-7.4,7.4-7.4H428c4.1,0,7.4,3.3,7.4,7.4v180
						C435.5,370.4,432.1,373.8,428,373.8z"/>
				</g>
				<g>
					<path class="st10" d="M348.2,153.2l-193.1,0.9c-10.3,0-18.7-8.4-18.7-18.7l0,0c0-10.3,8.4-18.7,18.7-18.7l193.1-0.9
						c10.3,0,18.7,8.4,18.7,18.7l0,0C367,144.8,358.6,153.2,348.2,153.2z"/>
					<text transform="matrix(1 0 0 1 155.2476 146.2738)" class="st11 st12 st13">www</text>
					<g>
						<circle class="st14" cx="343.5" cy="133.6" r="8"/>
						<line class="st15" x1="348.7" y1="139.7" x2="353.6" y2="144.5"/>
					</g>
				</g>
			</g>
		</g>
	</g>
	<g id="Layer_4">
	</g>
	<g id="Layer_5">
		
			<linearGradient id="SVGID_00000061467868091262266560000007964680771634647698_" gradientUnits="userSpaceOnUse" x1="157.376" y1="-22.2006" x2="357.7856" y2="234.9615" gradientTransform="matrix(1 0 0 -1 0 528)">
			<stop  offset="0" style="stop-color:#425EAB"/>
			<stop  offset="0.3539" style="stop-color:#3E5FAC;stop-opacity:0.6441"/>
			<stop  offset="0.6736" style="stop-color:#3362AE;stop-opacity:0.3226"/>
			<stop  offset="0.9792" style="stop-color:#2168B3;stop-opacity:1.531410e-02"/>
			<stop  offset="0.9944" style="stop-color:#2068B3;stop-opacity:0"/>
		</linearGradient>
		<path style="fill:url(#SVGID_00000061467868091262266560000007964680771634647698_);" d="M322.4,407.3l-112.1-66.5
			c-7.1-4.2-7-14.5,0.2-18.6l111.4-62.5c3.3-1.8,7.2-1.8,10.5,0l112.1,63c7.2,4,7.3,14.4,0.2,18.6l-111.5,66
			C329.9,409.3,325.7,409.3,322.4,407.3z"/>
		<g>
			<g>
				<path class="st17" d="M283.6,332.7l10.9,31.9c0.5,1.3,2,2.4,3.5,2.4h21.5c1,0,1.7-0.5,1.9-1.3l0.6-2.3c0.2-0.7,0.8-1.1,1.7-1.1
					h21.7c1.5,0,2.3-1.1,1.9-2.4l-9.3-27.3l-0.1-5.3v-41c0-1.5-1.2-2.7-2.7-2.7h-21.5c-1,0-1.9,0.5-2.4,1.4l-1.4,2.6
					c-0.4,0.7-1.2,1.2-2.1,1.2h-21.7c-1.5,0-2.7,1.2-2.7,2.7v35.8L283.6,332.7z"/>
				<path class="st18" d="M283.6,332.7l10.9,31.9c0.5,1.3,2,2.4,3.5,2.4h21.5c1,0,1.7-0.5,1.9-1.3l0.6-2.3c0.2-0.7,0.8-1.1,1.7-1.1
					h21.7c1.5,0,2.3-1.1,1.9-2.4l-9.3-27.3l-0.1-5.3v-41c0-1.5-1.2-2.7-2.7-2.7h-21.5c-1,0-1.9,0.5-2.4,1.4l-1.4,2.6
					c-0.4,0.7-1.2,1.2-2.1,1.2h-21.7c-1.5,0-2.7,1.2-2.7,2.7v35.8L283.6,332.7z"/>
				<path class="st19" d="M283.6,332.7l10.9,31.9c0.5,1.3,2,2.4,3.5,2.4h21.5c1,0,1.7-0.5,1.9-1.3l0.6-2.3c0.2-0.7,0.8-1.1,1.7-1.1
					h21.7c1.5,0,2.3-1.1,1.9-2.4l-9.3-27.3L283.6,332.7L283.6,332.7z"/>
				<path class="st20" d="M283.6,332.7l10.9,31.9c0.5,1.3,2,2.4,3.5,2.4h21.5c1,0,1.7-0.5,1.9-1.3l0.6-2.3c0.2-0.7,0.8-1.1,1.7-1.1
					h21.7c1.5,0,2.3-1.1,1.9-2.4l-9.3-27.3L283.6,332.7L283.6,332.7z"/>
			</g>
			<polygon class="st21" points="288.8,332.7 333,332.7 341,355.4 296.9,355.4 			"/>
			<g>
				<rect x="288.8" y="296.9" class="st22" width="44.2" height="35.8"/>
			</g>
			<g>
				<polygon class="st23" points="288.8,332.7 333,332.7 341.9,306.9 297.8,306.9 				"/>
			</g>
			<g>
				<polygon class="st23" points="288.8,332.7 333,332.7 341.9,351.8 297.8,351.8 				"/>
			</g>
			<g>
				<polygon class="st22" points="288.8,332.7 333,332.7 347.4,322.8 303.3,322.8 				"/>
			</g>
		</g>
	</g>
	<g id="Layer_2_00000036237827183751152560000005921412628236405651_">
		<g>
			<g>
				<g>
					<path class="st24" d="M350.4,201.7V264c0,3.5,4.3,7.7,6.8,6.7l7.4-3.1c0.7-0.3,1.7-0.2,2.8,0.4l83.3,48c2.2,1.3,4,0.5,4-1.7
						v-52.6c0-2.2-1.8-5-4-6.2l-96.3-55.4C352.2,198.8,350.4,199.5,350.4,201.7z"/>
					<path class="st25" d="M343,205.7V268c0,3.5,4.3,7.7,6.8,6.7l7.4-3.1c0.7-0.3,1.7-0.2,2.8,0.4l83.3,48c2.2,1.3,4,0.5,4-1.7
						v-52.6c0-2.2-1.8-5-4-6.2L347,204.1C344.8,202.8,343,203.6,343,205.7z"/>
					<path class="st26" d="M443.3,259.5L347,204.1c-2.2-1.3-4-0.5-4,1.7v1c0.3,0.1,0.6,0.2,0.8,0.4l96.3,55.4c2.2,1.3,4,4,4,6.2
						v51.5c1.8,0.6,3.1-0.2,3.1-2.1v-52.5C447.2,263.5,445.5,260.7,443.3,259.5z"/>
					<g>
						<g class="st27">
							<path class="st3" d="M374,245.7l46.9,27.1c0.7,0.4,1.3,0.2,1.3-0.5l0,0c0-0.7-0.6-1.6-1.3-2L374,243.2
								c-0.7-0.4-1.3-0.2-1.3,0.5l0,0C372.7,244.4,373.3,245.3,374,245.7z"/>
						</g>
						<g class="st27">
							<path class="st3" d="M374,252.9l46.9,27.1c0.7,0.4,1.3,0.2,1.3-0.5l0,0c0-0.7-0.6-1.6-1.3-2L374,250.4
								c-0.7-0.4-1.3-0.2-1.3,0.5l0,0C372.7,251.6,373.3,252.5,374,252.9z"/>
						</g>
						<g class="st27">
							<path class="st28" d="M373.6,259.8l34.7,19.9c0.5,0.3,0.9,0.1,0.9-0.4v-0.7c0-0.5-0.4-1.1-0.9-1.4l-34.7-19.9
								c-0.5-0.3-0.9-0.1-0.9,0.4v0.7C372.7,258.9,373.1,259.6,373.6,259.8z"/>
						</g>
					</g>
				</g>
				<g>
					<path class="st29" d="M340.3,138.4v62.3c0,3.5-4.3,2.9-6.8-1.1l-7.4-11.6c-0.7-1.2-1.7-2.2-2.8-2.8l-82.9-47.4
						c-2.2-1.2-4-4-4-6.2V79c0-2.2,1.8-2.9,4-1.7l95.8,54.8C338.5,133.5,340.3,136.3,340.3,138.4z"/>
					<path class="st30" d="M334.2,144.6v62.2c0,3.5-4.3,2.9-6.8-1.1l-7.4-11.6c-0.7-1.2-1.7-2.2-2.8-2.8l-82.9-47.4
						c-2.2-1.2-4-4-4-6.2V85.1c0-2.2,1.8-2.9,4-1.7l95.8,54.8C332.4,139.6,334.2,142.4,334.2,144.6z"/>
					<path class="st26" d="M330.3,138.3l-95.8-54.8c-2.2-1.2-4-0.5-4,1.7v1.3c0.2,0.1,0.4,0.2,0.6,0.3l95.8,54.8c2.2,1.2,4,4,4,6.2
						v61c1.8,0.7,3.3,0.1,3.3-2v-62.2C334.2,142.4,332.4,139.6,330.3,138.3z"/>
					<g>
						<g class="st27">
							<path class="st3" d="M300.1,146.7l-46.4-26.5c-0.7-0.4-1.3-1.3-1.3-2l0,0c0-0.7,0.6-0.9,1.3-0.5l46.4,26.5
								c0.7,0.4,1.3,1.3,1.3,2l0,0C301.3,146.9,300.8,147.1,300.1,146.7z"/>
						</g>
						<g class="st27">
							<path class="st3" d="M300.1,153.9l-46.4-26.5c-0.7-0.4-1.3-1.3-1.3-2l0,0c0-0.7,0.6-0.9,1.3-0.5l46.4,26.5
								c0.7,0.4,1.3,1.3,1.3,2l0,0C301.3,154,300.8,154.3,300.1,153.9z"/>
						</g>
						<g class="st31">
							<path class="st32" d="M300.4,161.2l-34.7-19.8c-0.5-0.3-0.9-0.9-0.9-1.4v-0.7c0-0.5,0.4-0.7,0.9-0.4l34.7,19.8
								c0.5,0.3,0.9,0.9,0.9,1.4v0.7C301.3,161.3,300.9,161.5,300.4,161.2z"/>
						</g>
					</g>
				</g>
				<g>
					<path class="st33" d="M459.3,247.2l-107.6-57.4c-1.7-0.9-3.2-3.1-3.2-4.8v-38.6c0-1.7,1.4-2.4,3.2-1.5l107.6,57.4
						c1.7,0.9,3.2,3.1,3.2,4.8v38.6C462.5,247.5,461.1,248.1,459.3,247.2z"/>
					<path class="st26" d="M459.3,202.3l-107.6-57.4c-1.7-0.9-3.2-0.3-3.2,1.5v2.1l107.3,57.3c1.7,0.9,3.2,3.1,3.2,4.8v36.5l0.3,0.1
						c1.7,0.9,3.2,0.3,3.2-1.5v-38.6C462.5,205.4,461.1,203.2,459.3,202.3z"/>
					<g>
						<path class="st34" d="M412.2,193.1L374.6,173c-0.5-0.3-0.9-0.8-0.9-1.3l0,0c0-0.5,0.4-0.7,0.9-0.4l37.6,20.1
							c0.5,0.3,0.9,0.8,0.9,1.3l0,0C413.1,193.2,412.7,193.3,412.2,193.1z"/>
						<path class="st34" d="M412.2,199l-37.6-20.1c-0.5-0.3-0.9-0.8-0.9-1.3l0,0c0-0.5,0.4-0.7,0.9-0.4l37.6,20.1
							c0.5,0.3,0.9,0.8,0.9,1.3l0,0C413.1,199,412.7,199.2,412.2,199z"/>
						<path class="st34" d="M412.2,204.8l-37.6-20.1c-0.5-0.3-0.9-0.8-0.9-1.3l0,0c0-0.5,0.4-0.7,0.9-0.4l37.6,20.1
							c0.5,0.3,0.9,0.8,0.9,1.3l0,0C413.1,204.9,412.7,205.1,412.2,204.8z"/>
						<path class="st35" d="M394.4,201.2l-20-10.7c-0.3-0.2-0.6-0.6-0.6-1V189c0-0.3,0.3-0.5,0.6-0.3l20,10.7c0.3,0.2,0.6,0.6,0.6,1
							v0.5C395,201.3,394.7,201.4,394.4,201.2z"/>
					</g>
				</g>
				<g>
					<path class="st33" d="M327.5,257.4l-70.9-42c-1.7-1-3.2-3.3-3.2-5v-38.6c0-1.7,1.4-2.3,3.2-1.3l70.9,42c1.7,1,3.2,3.3,3.2,5
						v38.6C330.6,257.8,329.2,258.4,327.5,257.4z"/>
					<path class="st26" d="M327.5,212.5l-70.9-42c-1.6-0.9-2.9-0.5-3.1,0.8l69.5,41.2c1.7,1,3.2,3.3,3.2,5v38.6c0,0.2,0,0.3,0,0.5
						l1.4,0.8c1.7,1,3.2,0.5,3.2-1.3v-38.6C330.6,215.8,329.2,213.5,327.5,212.5z"/>
					<g>
						<path class="st36" d="M311,217.8l-37.6-22.2c-0.5-0.3-0.9-0.9-0.9-1.4l0,0c0-0.5,0.4-0.6,0.9-0.4L311,216
							c0.5,0.3,0.9,0.9,0.9,1.4l0,0C311.8,217.9,311.4,218.1,311,217.8z"/>
						<path class="st36" d="M311,223.7l-37.6-22.2c-0.5-0.3-0.9-0.9-0.9-1.4l0,0c0-0.5,0.4-0.6,0.9-0.4l37.6,22.2
							c0.5,0.3,0.9,0.9,0.9,1.4l0,0C311.8,223.8,311.4,223.9,311,223.7z"/>
						<path class="st36" d="M311,229.5l-37.6-22.2c-0.5-0.3-0.9-0.9-0.9-1.4l0,0c0-0.5,0.4-0.6,0.9-0.4l37.6,22.2
							c0.5,0.3,0.9,0.9,0.9,1.4l0,0C311.8,229.7,311.4,229.8,311,229.5z"/>
						<path class="st37" d="M293.1,224.9l-20-11.8c-0.3-0.2-0.6-0.7-0.6-1v-0.5c0-0.3,0.3-0.5,0.6-0.3l20,11.8
							c0.3,0.2,0.6,0.7,0.6,1v0.5C293.7,225,293.5,225.1,293.1,224.9z"/>
					</g>
				</g>
			</g>
		</g>
	</g>
</g>
<g id="Layer_2">
	<g class="st38">
		<g>
			<path class="st17" d="M182.2,191.6l-1.2-2.2c-0.4-0.7-1.2-1.2-1.9-1.2h-17.4c-1.2,0-2.2,1-2.2,2.2v33.3c0,1.2,1,2.3,2.3,2.3h39.7
				c1.2,0,2.3-1,2.3-2.3v-29.1c0-1.2-1-2.2-2.2-2.2h-17.6C183.2,192.5,182.5,192.2,182.2,191.6z"/>
			<path class="st20" d="M182.2,191.6l-1.2-2.2c-0.4-0.7-1.2-1.2-1.9-1.2h-17.4c-1.2,0-2.2,1-2.2,2.2v33.3c0,1.2,1,2.3,2.3,2.3h39.7
				c1.2,0,2.3-1,2.3-2.3v-29.1c0-1.2-1-2.2-2.2-2.2h-17.6C183.2,192.5,182.5,192.2,182.2,191.6z"/>
		</g>
		<g>
			<rect x="164.3" y="193.9" class="st22" width="33.8" height="25.3"/>
		</g>
		<g>
			<rect x="161.8" y="196.4" class="st23" width="38.7" height="28.9"/>
		</g>
		<g>
			<g>
				<path class="st17" d="M207.6,197.1c-9.3,0-13.9,0-23.2,0c-1.1,0-2.1,0.4-2.6,1c-0.6,0.7-0.9,1.1-1.5,1.8
					c-0.4,0.5-1.2,0.8-2.2,0.8c-9.1,0-13.6,0-22.7,0c-1.6,0-2.6,0.8-2.3,1.9c2.2,8.6,3.3,12.9,5.5,21.5c0.2,1.1,1.5,2,2.8,2
					c13.1,0,26.2,0,39.3,0c1.2,0,2.5-0.9,2.8-2c2.2-8.4,4.3-16.8,6.5-25.1C210.2,198,209.1,197.1,207.6,197.1z"/>
			</g>
			<g class="st39">
				<path class="st40" d="M207.6,197.1c-9.3,0-13.9,0-23.2,0c-1.1,0-2.1,0.4-2.6,1c-0.6,0.7-0.9,1.1-1.5,1.8
					c-0.4,0.5-1.2,0.8-2.2,0.8c-9.1,0-13.6,0-22.7,0c-1.6,0-2.6,0.8-2.3,1.9c2.2,8.6,3.3,12.9,5.5,21.5c0.2,1.1,1.5,2,2.8,2
					c13.1,0,26.2,0,39.3,0c1.2,0,2.5-0.9,2.8-2c2.2-8.4,4.3-16.8,6.5-25.1C210.2,198,209.1,197.1,207.6,197.1z"/>
			</g>
		</g>
	</g>
	<g class="st38">
		<g>
			<path class="st17" d="M182.2,255.2l-1.2-2.2c-0.4-0.7-1.2-1.2-1.9-1.2h-17.4c-1.2,0-2.2,1-2.2,2.2v33.3c0,1.2,1,2.3,2.3,2.3h39.7
				c1.2,0,2.3-1,2.3-2.3v-29.1c0-1.2-1-2.2-2.2-2.2h-17.6C183.2,256.1,182.5,255.8,182.2,255.2z"/>
			<path class="st20" d="M182.2,255.2l-1.2-2.2c-0.4-0.7-1.2-1.2-1.9-1.2h-17.4c-1.2,0-2.2,1-2.2,2.2v33.3c0,1.2,1,2.3,2.3,2.3h39.7
				c1.2,0,2.3-1,2.3-2.3v-29.1c0-1.2-1-2.2-2.2-2.2h-17.6C183.2,256.1,182.5,255.8,182.2,255.2z"/>
		</g>
		<g>
			<rect x="164.3" y="257.5" class="st22" width="33.8" height="25.3"/>
		</g>
		<g>
			<rect x="161.8" y="260" class="st23" width="38.7" height="28.9"/>
		</g>
		<g>
			<g>
				<path class="st17" d="M207.6,260.7c-9.3,0-13.9,0-23.2,0c-1.1,0-2.1,0.4-2.6,1c-0.6,0.7-0.9,1.1-1.5,1.8
					c-0.4,0.5-1.2,0.8-2.2,0.8c-9.1,0-13.6,0-22.7,0c-1.6,0-2.6,0.8-2.3,1.9c2.2,8.6,3.3,12.9,5.5,21.5c0.2,1.1,1.5,2,2.8,2
					c13.1,0,26.2,0,39.3,0c1.2,0,2.5-0.9,2.8-2c2.2-8.4,4.3-16.8,6.5-25.1C210.3,261.6,209.1,260.7,207.6,260.7z"/>
			</g>
			<g class="st41">
				<path class="st40" d="M207.6,260.7c-9.3,0-13.9,0-23.2,0c-1.1,0-2.1,0.4-2.6,1c-0.6,0.7-0.9,1.1-1.5,1.8
					c-0.4,0.5-1.2,0.8-2.2,0.8c-9.1,0-13.6,0-22.7,0c-1.6,0-2.6,0.8-2.3,1.9c2.2,8.6,3.3,12.9,5.5,21.5c0.2,1.1,1.5,2,2.8,2
					c13.1,0,26.2,0,39.3,0c1.2,0,2.5-0.9,2.8-2c2.2-8.4,4.3-16.8,6.5-25.1C210.3,261.6,209.1,260.7,207.6,260.7z"/>
			</g>
		</g>
	</g>
</g>
</svg>
