<?xml version="1.0" encoding="utf-8"?>
<!-- Generator: Adobe Illustrator 27.5.0, SVG Export Plug-In . SVG Version: 6.00 Build 0)  -->
<svg version="1.1" id="Layer_1" xmlns="http://www.w3.org/2000/svg" xmlns:xlink="http://www.w3.org/1999/xlink" x="0px" y="0px"
	 viewBox="0 0 588 527" style="enable-background:new 0 0 588 527;" xml:space="preserve">
<style type="text/css">
	.st0{display:none;fill:url(#SVGID_1_);}
	.st1{fill:url(#SVGID_00000163768031474435650030000002196301097294721934_);}
	.st2{fill:#1D2433;}
	.st3{fill:#FFFFFF;}
	.st4{fill:#77F28A;}
	.st5{fill:#EF5C00;}
	.st6{fill:#FFDB26;}
	.st7{fill:#262D3F;}
	.st8{opacity:0.26;}
	.st9{display:none;fill:none;stroke:#000000;stroke-width:5;stroke-miterlimit:10;}
	.st10{fill:#8FB0F8;}
	.st11{fill:#FFFFFF;stroke:#2C49B8;stroke-miterlimit:10;}
	.st12{display:none;fill:#2C49B8;enable-background:new    ;}
	.st13{font-family:'ArialMT';}
	.st14{font-size:36.1559px;}
	.st15{fill:none;stroke:#2C49B8;stroke-width:1.6765;stroke-miterlimit:10;}
	.st16{fill:none;stroke:#2C49B8;stroke-width:1.6765;stroke-linecap:round;stroke-linejoin:round;stroke-miterlimit:10;}
	.st17{fill:url(#SVGID_00000164489827515065365560000015053502029465415091_);}
	.st18{opacity:0.25;fill:#005DCC;enable-background:new    ;}
	.st19{opacity:0.81;fill:#2546AF;enable-background:new    ;}
	.st20{opacity:0.25;enable-background:new    ;}
	.st21{opacity:0.63;}
	.st22{fill:#113468;}
	.st23{opacity:0.25;fill:#4368B1;enable-background:new    ;}
	.st24{opacity:0.85;fill:#1839B2;enable-background:new    ;}
	.st25{opacity:0.5;}
	.st26{fill:#121272;}
	.st27{opacity:0.82;fill:#7EABF1;enable-background:new    ;}
	.st28{opacity:0.81;fill:#375BDD;enable-background:new    ;}
	.st29{fill:#375BDD;}
	.st30{opacity:0.81;fill:#4862AC;enable-background:new    ;}
	.st31{fill:#4862AC;}
</style>
<g id="Layer_1_00000109016191596537564420000014544664457746946436_">
	
		<linearGradient id="SVGID_1_" gradientUnits="userSpaceOnUse" x1="-1778" y1="-52" x2="-1778" y2="448" gradientTransform="matrix(-1 0 0 -1 -1484 448)">
		<stop  offset="0" style="stop-color:#FFFFFF"/>
		<stop  offset="1" style="stop-color:#E9FAFF"/>
	</linearGradient>
	<path class="st0" d="M580,500H8c-4.4,0-8-3.6-8-8V8c0-4.4,3.6-8,8-8h572c4.4,0,8,3.6,8,8v484C588,496.4,584.4,500,580,500z"/>
	
		<linearGradient id="SVGID_00000170244058862109278510000007495038338289503152_" gradientUnits="userSpaceOnUse" x1="-1778.75" y1="-52.5" x2="-1778.75" y2="447.5" gradientTransform="matrix(-1 0 0 -1 -1484 448)">
		<stop  offset="0" style="stop-color:#5E81F7;stop-opacity:0"/>
		<stop  offset="1" style="stop-color:#2546AF;stop-opacity:0.81"/>
	</linearGradient>
	<path style="fill:url(#SVGID_00000170244058862109278510000007495038338289503152_);" d="M580,500.5H9.5c-4.4,0-8-3.6-8-8V8.5
		c0-4.4,3.6-8,8-8H580c4.4,0,8,3.6,8,8v484C588,496.9,584.4,500.5,580,500.5z"/>
	<path class="st2" d="M127.3,68.3h340.4c1.3,0,2.6,0.5,3.5,1.5c0.9,0.9,1.5,2.2,1.5,3.5v20.2H122.3V73.3c0-1.3,0.5-2.6,1.5-3.5
		C124.7,68.9,126,68.3,127.3,68.3L127.3,68.3z"/>
	<g>
		<path class="st3" d="M122,93h350v322.2c0,1.3-0.5,2.5-1.5,3.4c-0.9,0.9-2.2,1.4-3.5,1.4H127c-1.3,0-2.6-0.5-3.5-1.4
			s-1.5-2.1-1.5-3.4V93z"/>
	</g>
	<path class="st4" d="M161.1,83.7c1.4,0,2.5-1.1,2.5-2.5s-1.1-2.5-2.5-2.5s-2.5,1.1-2.5,2.5S159.8,83.7,161.1,83.7z"/>
	<path class="st5" d="M143.2,83.7c1.4,0,2.5-1.1,2.5-2.5s-1.1-2.5-2.5-2.5s-2.5,1.1-2.5,2.5S141.8,83.7,143.2,83.7z"/>
	<path class="st6" d="M152,83.7c1.4,0,2.5-1.1,2.5-2.5s-1.1-2.5-2.5-2.5s-2.5,1.1-2.5,2.5S150.6,83.7,152,83.7z"/>
	<path class="st7" d="M421.3,130.9c0.9,0,1.7-0.8,1.7-1.7s-0.8-1.7-1.7-1.7c-0.9,0-1.7,0.8-1.7,1.7S420.4,130.9,421.3,130.9z"/>
	<path class="st7" d="M426.4,130.9c0.9,0,1.7-0.8,1.7-1.7s-0.8-1.7-1.7-1.7c-0.9,0-1.7,0.8-1.7,1.7S425.5,130.9,426.4,130.9z"/>
	<path class="st7" d="M431.5,130.9c0.9,0,1.7-0.8,1.7-1.7s-0.8-1.7-1.7-1.7c-0.9,0-1.7,0.8-1.7,1.7S430.5,130.9,431.5,130.9z"/>
</g>
<g id="Layer_3" class="st8">
	<g>
		<g>
			<g>
				<path class="st9" d="M428,373.8H178.8c-4.1,0-7.4-3.3-7.4-7.4v-180c0-4.1,3.3-7.4,7.4-7.4H428c4.1,0,7.4,3.3,7.4,7.4v180
					C435.5,370.4,432.1,373.8,428,373.8z"/>
				<g>
					
						<ellipse transform="matrix(4.386000e-02 -0.999 0.999 4.386000e-02 26.5193 556.4647)" class="st10" cx="304" cy="264.4" rx="71.8" ry="77.5"/>
				</g>
				<path class="st3" d="M374.6,263.4l-18.1-0.2h-0.2c-0.2-7.9-1.3-15.6-3.3-22.9c-0.2-0.8-0.5-1.7-0.8-2.7l16.2-0.2
					c0.3,0,0.6-0.3,0.6-0.6l-0.1-0.6l-16.7-0.2h-0.6c-2.3-6.6-5.2-12.7-8.9-18.1c-1.8-2.6-3.7-5.1-5.8-7.4l5.3-0.1
					c2.5,0,4.9-0.1,7.4-0.1c0.3,0,0.5-0.3,0.6-0.6l-0.1-0.6h-0.5c-2.4,0-4.9-0.1-7.3-0.1l-6.8-0.1c-3.2-3.3-6.6-6.1-10.2-8.3
					s-7.3-3.9-11.2-5.1c-4-1.2-8.1-1.8-12.2-1.8s-8.2,0.6-12.2,1.8c-3.9,1.2-7.7,2.9-11.2,5.1c-3.6,2.3-7,5.1-10.2,8.4h-2.8
					c-2.5,0-5.1,0.1-7.6,0.1c-0.3,0-0.6,0.3-0.6,0.6v0.3l0.4,0.3h0.2c2.6,0,5.1,0.1,7.7,0.1h1.3c-2.1,2.3-4.1,4.8-5.8,7.4
					c-3.7,5.4-6.7,11.6-8.9,18.2l-13,0.1c-0.3,0-0.6,0.3-0.6,0.6s0.3,0.6,0.6,0.6l12.5,0.1c-0.3,1-0.6,1.9-0.8,2.7
					c-1.1,3.9-1.9,8-2.5,12.1c-0.5,3.5-0.7,7.1-0.8,10.9l-14,0.1c-0.3,0-0.6,0.3-0.6,0.6c0,0.3,0.3,0.6,0.6,0.6l13.9,0.1
					c0,4.1,0.3,8.3,0.8,12.3c0.5,4.1,1.4,8.1,2.5,12.1c0.1,0.4,0.3,0.9,0.4,1.3l-12,0.1c-0.3,0-0.6,0.3-0.6,0.6
					c0,0.3,0.3,0.6,0.6,0.6l12.5,0.1c2.3,7.2,5.5,13.8,9.4,19.6c1.4,2,2.9,4,4.5,5.9h-5.3c-0.4,0-0.8,0.4-0.8,0.8s0.4,0.8,0.8,0.8
					h6.7c3.5,3.9,7.4,7.2,11.6,9.8c3.6,2.2,7.4,4,11.2,5.1c4,1.2,8.1,1.8,12.2,1.8c0.3,0,0.6,0,0.9,0h0.4c0.4,0,0.7,0.1,0.9,0.1
					c0.4,0,0.8-0.1,1.2-0.1c3-0.2,6-0.8,8.8-1.7c3.9-1.2,7.7-2.9,11.2-5.1c4.1-2.6,8-5.9,11.5-9.7H352c0.4,0,0.8-0.4,0.8-0.8
					s-0.4-0.8-0.8-0.8h-13.7c1.6-1.9,3.1-3.9,4.5-5.9c3.9-5.8,7.1-12.4,9.4-19.6l16.2-0.2c0.3,0,0.6-0.3,0.6-0.6l-0.1-0.6l-16.3-0.2
					c0.1-0.4,0.3-0.9,0.4-1.3c2.1-7.7,3.3-15.9,3.3-24.3l17.7-0.2l0,0c0.3,0,0.6-0.3,0.6-0.6V263.4z M292.2,317.3
					c-0.6-1.8-1.1-3.6-1.5-5.5c-0.7-2.9-1.4-5.9-1.9-9.2c-0.6-3.3-1.1-6.8-1.5-10.7h16.6h17c-0.4,3.8-0.9,7.2-1.5,10.4
					c-0.6,3.3-1.2,6.3-1.9,9.2c-0.5,2-1,3.9-1.6,5.8L292.2,317.3L292.2,317.3z M285.8,264.8h18h18.5c0,6.4-0.2,12.7-0.7,18.7
					c-0.2,2-0.4,4.2-0.6,6.6h-17.2h-16.2H287c-0.2-2.3-0.4-4.4-0.6-6.3c-0.5-6.1-0.7-12.5-0.7-18.9v-0.1H285.8z M285.8,263.1
					c0-9.2,0.4-17.5,1.2-25.3h16.8h16.9c0.3,2.7,0.6,5.4,0.8,8c0.5,5.6,0.7,11.4,0.7,17.3h-18.5H285.8z M303.8,236h-16.2h-0.5
					c0.3-3,0.7-5.9,1.1-8.7c0.5-3.3,1.1-6.3,1.7-9.3c0.6-2.6,1.2-5,2-7.3h11.8h11c0.8,2.3,1.5,4.6,2.2,7.2c0.8,2.9,1.4,5.9,2.1,9.2
					c0.5,2.8,1,5.9,1.4,8.9L303.8,236z M324.4,263.1c-0.1-6-0.3-11.9-0.8-17.5c-0.2-2.5-0.5-5.2-0.9-7.9l27.3-0.1
					c0.4,1.2,0.7,2.3,1,3.3c1.9,7.1,3,14.6,3.1,22.3L324.4,263.1z M310,200.7c1.5,2.2,2.8,4.9,4.2,8.3l0,0h-10.4h-11.3
					c1.2-3.6,2.4-6.2,3.8-8.4c1-1.5,1.9-2.6,2.9-3.4c0.6-0.5,1.2-0.9,1.8-1.1c0.7-0.3,1.4-0.4,2-0.4s1.3,0.2,2,0.5
					c0.6,0.3,1.2,0.7,1.8,1.2C308.1,198.1,309,199.3,310,200.7z M282.8,237.8h2.2c-0.3,2.7-0.6,5.5-0.8,8.2
					c-0.2,3.1-0.4,6.3-0.5,9.5c-0.1,2.8-0.2,5.3-0.2,7.7l-32.4,0.1h-1.2c0.1-3.6,0.3-7.1,0.8-10.5c0.5-4.1,1.3-8,2.3-11.8
					c0.3-1,0.6-2,1-3.3l17.5,0.1C275.3,237.8,279.1,237.8,282.8,237.8z M250.7,276.7c-0.5-3.9-0.8-7.9-0.8-11.9l33.6,0.1v0.2
					c0,6.5,0.3,12.9,0.8,19c0.2,1.9,0.4,3.9,0.6,6.2h-1.8c-3.9,0-7.8,0-11.7,0l-16.2,0.1h-1.8c-0.2-0.6-0.4-1.3-0.5-1.9
					C252.1,284.7,251.3,280.8,250.7,276.7z M323.7,283.7c0.5-6.1,0.7-12.5,0.7-18.9l29.7-0.1c0,8.2-1.1,16.2-3.1,23.7
					c-0.2,0.6-0.4,1.2-0.5,1.9l-27.4-0.1C323.3,287.8,323.5,285.7,323.7,283.7z M322.5,236.1c-0.5-3.2-1-6.3-1.6-9.3
					c-0.7-3.3-1.4-6.4-2.2-9.3c-0.7-2.4-1.4-4.6-2.1-6.8h2.8c2.5,0,5,0,7.4,0l7.9-0.1c2.4,2.6,4.7,5.4,6.6,8.4
					c3.4,5.1,6.1,10.9,8.2,17.1L322.5,236.1z M326.8,209.1c-2.5,0-5,0-7.4,0H316l0,0c-0.1-0.2-0.1-0.4-0.2-0.6
					c-1.4-3.5-2.8-6.3-4.4-8.5c-1.1-1.6-2.2-2.7-3.3-3.7c-0.2-0.2-0.4-0.3-0.6-0.5c2.2,0.3,4.4,0.8,6.5,1.4c3.7,1.1,7.4,2.8,10.8,5
					c3,1.9,5.9,4.3,8.6,7L326.8,209.1z M299.3,195.4c-0.3,0.2-0.6,0.4-0.8,0.6c-1.1,0.9-2.2,2.1-3.2,3.7c-1.5,2.3-2.8,5-4.1,8.7
					c-0.1,0.2-0.1,0.3-0.2,0.5h-1.7c-2.8,0-5.6,0-8.4,0l-10.1,0.1c2.7-2.7,5.6-5.1,8.6-7c3.5-2.2,7.1-3.9,10.8-5
					C293.2,196.2,296.2,195.7,299.3,195.4z M280.9,210.7c2.7,0,5.4,0,8.1,0h1.3c-0.7,2.2-1.3,4.5-1.9,6.9c-0.7,2.9-1.3,6-1.9,9.4
					c-0.5,2.9-0.9,5.9-1.3,9h-2.4c-3.8,0-7.5,0-11.3,0l-16.2,0.1h-0.9c2.1-6.2,4.9-12,8.2-17.1l0,0c2-3,4.2-5.9,6.6-8.5L280.9,210.7
					z M271.5,291.9c3.8,0,7.5,0,11.3,0h2.4c0.5,4,1,7.6,1.6,11c0.6,3.3,1.3,6.4,2,9.3c0.4,1.7,0.9,3.4,1.4,5H268
					c-1.9-2.2-3.7-4.5-5.3-7c-3.6-5.5-6.5-11.7-8.7-18.5L271.5,291.9z M290.8,318.9c0.3,0.8,0.6,1.7,0.9,2.5
					c1.4,3.6,2.7,6.3,4.3,8.7c1.1,1.6,2.1,2.8,3.3,3.7l0.1,0.1c-3.1-0.2-6.2-0.8-9.2-1.7c-3.7-1.1-7.4-2.8-10.8-5
					c-3.2-2-6.3-4.6-9.2-7.6c-0.2-0.2-0.5-0.5-0.7-0.7H290.8z M297.4,329.1c-1.5-2.2-2.8-4.9-4-8.3c-0.2-0.6-0.5-1.3-0.7-1.9h22.6
					c-0.2,0.5-0.4,1.1-0.6,1.6c-1.3,3.5-2.5,6.1-4,8.4c-1,1.5-1.9,2.6-2.9,3.4c-0.6,0.5-1.2,0.9-1.8,1.2c-0.3,0.1-0.6,0.3-1,0.3
					c-0.5,0-1.1,0.1-1.6,0.1h-0.1c-0.4-0.1-0.9-0.2-1.2-0.3c-0.6-0.2-1.2-0.6-1.8-1.1C299.3,331.7,298.4,330.6,297.4,329.1z
					 M309.3,333.3c1-0.9,1.9-2,2.9-3.5c1.5-2.3,2.9-5.1,4.2-8.7c0.3-0.7,0.5-1.5,0.8-2.2h17.3c-0.2,0.3-0.5,0.5-0.7,0.8
					c-2.9,3-6,5.5-9.2,7.6c-3.4,2.2-7.1,3.8-10.8,5C312.3,332.6,310.8,333,309.3,333.3z M317.7,317.3c0.5-1.7,1.1-3.5,1.5-5.3
					c0.7-2.9,1.4-6,2-9.3c0.6-3.4,1.1-6.9,1.6-10.7l27.1-0.1c-2.2,6.8-5.1,13-8.7,18.5c-1.6,2.5-3.4,4.8-5.3,7h-18.2V317.3z"/>
			</g>
			<g>
				<path class="st11" d="M348.2,153.2l-193.1,0.9c-10.3,0-18.7-8.4-18.7-18.7l0,0c0-10.3,8.4-18.7,18.7-18.7l193.1-0.9
					c10.3,0,18.7,8.4,18.7,18.7l0,0C367,144.8,358.6,153.2,348.2,153.2z"/>
				<text transform="matrix(1 0 0 1 155.2476 146.2738)" class="st12 st13 st14">www</text>
				<g>
					<circle class="st15" cx="343.5" cy="133.6" r="8"/>
					<line class="st16" x1="348.7" y1="139.7" x2="353.6" y2="144.5"/>
				</g>
			</g>
		</g>
	</g>
</g>
<g id="Layer_2_00000129895960435026988670000018418357953214807707_">
	<g>
		
			<linearGradient id="SVGID_00000074435744182854625040000010027897280894268289_" gradientUnits="userSpaceOnUse" x1="-1.5241" y1="-17.142" x2="187.1233" y2="224.9272" gradientTransform="matrix(1 0 0 -1 0 528)">
			<stop  offset="0" style="stop-color:#6B7DC9"/>
			<stop  offset="0.9944" style="stop-color:#0066D4;stop-opacity:0"/>
		</linearGradient>
		<path style="fill:url(#SVGID_00000074435744182854625040000010027897280894268289_);" d="M153.8,410.6L48.4,348
			c-6.7-4-6.6-13.7,0.2-17.5l104.9-58.8c3.1-1.7,6.8-1.7,9.9,0L268.8,331c6.8,3.8,6.9,13.5,0.2,17.5l-104.9,62.1
			C160.9,412.5,157,412.5,153.8,410.6z"/>
		<g>
			<g>
				<path class="st18" d="M168.4,172v62.3c0,3.5,4.3,7.7,6.8,6.7l7.4-3.1c0.7-0.3,1.7-0.2,2.8,0.4l83.3,48c2.2,1.3,4,0.5,4-1.7V232
					c0-2.2-1.8-5-4-6.2l-96.3-55.4C170.2,169,168.4,169.8,168.4,172z"/>
				<path class="st19" d="M161,176v62.3c0,3.5,4.3,7.7,6.8,6.7l7.4-3.1c0.7-0.3,1.7-0.2,2.8,0.4l83.3,48c2.2,1.3,4,0.5,4-1.7V236
					c0-2.2-1.8-5-4-6.2L165,174.3C162.8,173.1,161,173.8,161,176z"/>
				<path class="st20" d="M261.3,229.7L165,174.3c-2.2-1.3-4-0.5-4,1.7v1c0.3,0.1,0.6,0.2,0.8,0.4l96.3,55.4c2.2,1.3,4,4,4,6.2v51.5
					c1.8,0.6,3.1-0.2,3.1-2.1V236C265.2,233.8,263.5,231,261.3,229.7z"/>
				<g>
					<g class="st21">
						<path class="st3" d="M192,216l46.9,27.1c0.7,0.4,1.3,0.2,1.3-0.5l0,0c0-0.7-0.6-1.6-1.3-2L192,213.5c-0.7-0.4-1.3-0.2-1.3,0.5
							l0,0C190.7,214.7,191.3,215.6,192,216z"/>
					</g>
					<g class="st21">
						<path class="st3" d="M192,223.1l46.9,27.1c0.7,0.4,1.3,0.2,1.3-0.5l0,0c0-0.7-0.6-1.6-1.3-2L192,220.6
							c-0.7-0.4-1.3-0.2-1.3,0.5l0,0C190.7,221.9,191.3,222.7,192,223.1z"/>
					</g>
					<g class="st21">
						<path class="st22" d="M191.6,230.1l34.7,19.9c0.5,0.3,0.9,0.1,0.9-0.4v-0.7c0-0.5-0.4-1.1-0.9-1.4l-34.7-19.9
							c-0.5-0.3-0.9-0.1-0.9,0.4v0.7C190.7,229.2,191.1,229.8,191.6,230.1z"/>
					</g>
				</g>
			</g>
			<g>
				<path class="st23" d="M173.2,270.6v62.3c0,3.5-4.3,2.9-6.8-1.1l-7.4-11.6c-0.7-1.2-1.7-2.2-2.8-2.8L73.4,270c-2.2-1.2-4-4-4-6.2
					v-52.6c0-2.2,1.8-2.9,4-1.7l95.8,54.8C171.4,265.6,173.2,268.4,173.2,270.6z"/>
				<path class="st24" d="M167.1,276.7V339c0,3.5-4.3,2.9-6.8-1.1l-7.4-11.6c-0.7-1.2-1.7-2.2-2.8-2.8l-82.9-47.4
					c-2.2-1.2-4-4-4-6.2v-52.6c0-2.2,1.8-2.9,4-1.7l95.8,54.8C165.3,271.7,167.1,274.5,167.1,276.7z"/>
				<path class="st20" d="M163.1,270.5l-95.8-54.8c-2.2-1.2-4-0.5-4,1.7v1.3c0.2,0.1,0.4,0.2,0.6,0.3l95.8,54.8c2.2,1.2,4,4,4,6.2
					v61c1.8,0.7,3.3,0.1,3.3-2v-62.2C167.1,274.5,165.3,271.7,163.1,270.5z"/>
				<g>
					<g class="st21">
						<path class="st3" d="M133,278.9l-46.4-26.5c-0.7-0.4-1.3-1.3-1.3-2l0,0c0-0.7,0.6-0.9,1.3-0.5l46.4,26.5
							c0.7,0.4,1.3,1.3,1.3,2l0,0C134.2,279,133.7,279.3,133,278.9z"/>
					</g>
					<g class="st21">
						<path class="st3" d="M133,286l-46.4-26.5c-0.7-0.4-1.3-1.3-1.3-2l0,0c0-0.7,0.6-0.9,1.3-0.5l46.4,26.5c0.7,0.4,1.3,1.3,1.3,2
							l0,0C134.2,286.2,133.7,286.4,133,286z"/>
					</g>
					<g class="st25">
						<path class="st26" d="M133.3,293.4l-34.7-19.8c-0.5-0.3-0.9-0.9-0.9-1.4v-0.7c0-0.5,0.4-0.7,0.9-0.4l34.7,19.8
							c0.5,0.3,0.9,0.9,0.9,1.4v0.7C134.2,293.5,133.8,293.7,133.3,293.4z"/>
					</g>
				</g>
			</g>
			<g>
				<path class="st27" d="M297.1,369.6l-107.6-57.4c-1.7-0.9-3.2-3.1-3.2-4.8v-38.6c0-1.7,1.4-2.4,3.2-1.5l107.6,57.4
					c1.7,0.9,3.2,3.1,3.2,4.8v38.6C300.3,369.8,298.9,370.5,297.1,369.6z"/>
				<path class="st20" d="M297.1,324.7l-107.6-57.4c-1.7-0.9-3.2-0.3-3.2,1.5v2.1l107.3,57.3c1.7,0.9,3.2,3.1,3.2,4.8v36.5l0.3,0.1
					c1.7,0.9,3.2,0.3,3.2-1.5v-38.6C300.3,327.8,298.9,325.6,297.1,324.7z"/>
				<g>
					<path class="st28" d="M250,315.4l-37.6-20.1c-0.5-0.3-0.9-0.8-0.9-1.3l0,0c0-0.5,0.4-0.7,0.9-0.4l37.6,20.1
						c0.5,0.3,0.9,0.8,0.9,1.3l0,0C250.8,315.5,250.5,315.7,250,315.4z"/>
					<path class="st28" d="M250,321.3l-37.6-20.1c-0.5-0.3-0.9-0.8-0.9-1.3l0,0c0-0.5,0.4-0.7,0.9-0.4l37.6,20.1
						c0.5,0.3,0.9,0.8,0.9,1.3l0,0C250.8,321.4,250.5,321.6,250,321.3z"/>
					<path class="st28" d="M250,327.2l-37.6-20.1c-0.5-0.3-0.9-0.8-0.9-1.3l0,0c0-0.5,0.4-0.7,0.9-0.4l37.6,20.1
						c0.5,0.3,0.9,0.8,0.9,1.3l0,0C250.8,327.3,250.5,327.5,250,327.2z"/>
					<path class="st29" d="M232.1,323.6l-20-10.7c-0.3-0.2-0.6-0.6-0.6-1v-0.5c0-0.3,0.3-0.5,0.6-0.3l20,10.7c0.3,0.2,0.6,0.6,0.6,1
						v0.5C232.8,323.6,232.5,323.7,232.1,323.6z"/>
				</g>
			</g>
			<g>
				<path class="st27" d="M132.8,218.4l-70.9-42c-1.7-1-3.2-3.3-3.2-5v-38.6c0-1.7,1.4-2.3,3.2-1.3l70.9,42c1.7,1,3.2,3.3,3.2,5
					v38.6C135.9,218.9,134.5,219.5,132.8,218.4z"/>
				<path class="st20" d="M132.8,173.5l-70.9-42c-1.6-0.9-2.9-0.5-3.1,0.8l69.5,41.2c1.7,1,3.2,3.3,3.2,5v38.6c0,0.2,0,0.3,0,0.5
					l1.4,0.8c1.7,1,3.2,0.5,3.2-1.3v-38.6C135.9,176.8,134.5,174.6,132.8,173.5z"/>
				<g>
					<path class="st30" d="M116.3,178.8l-37.6-22.2c-0.5-0.3-0.9-0.9-0.9-1.4l0,0c0-0.5,0.4-0.6,0.9-0.4l37.6,22.2
						c0.5,0.3,0.9,0.9,0.9,1.4l0,0C117.1,179,116.7,179.1,116.3,178.8z"/>
					<path class="st30" d="M116.3,184.7l-37.6-22.2c-0.5-0.3-0.9-0.9-0.9-1.4l0,0c0-0.5,0.4-0.6,0.9-0.4l37.6,22.2
						c0.5,0.3,0.9,0.9,0.9,1.4l0,0C117.1,184.8,116.7,185,116.3,184.7z"/>
					<path class="st30" d="M116.3,190.6l-37.6-22.2c-0.5-0.3-0.9-0.9-0.9-1.4l0,0c0-0.5,0.4-0.6,0.9-0.4l37.6,22.2
						c0.5,0.3,0.9,0.9,0.9,1.4l0,0C117.1,190.7,116.7,190.9,116.3,190.6z"/>
					<path class="st31" d="M98.4,185.9l-20-11.8c-0.3-0.2-0.6-0.7-0.6-1v-0.5c0-0.3,0.3-0.5,0.6-0.3l20,11.8c0.3,0.2,0.6,0.7,0.6,1
						v0.5C99,186,98.8,186.1,98.4,185.9z"/>
				</g>
			</g>
		</g>
	</g>
</g>
</svg>
