<?xml version="1.0" encoding="utf-8"?>
<!-- Generator: Adobe Illustrator 27.5.0, SVG Export Plug-In . SVG Version: 6.00 Build 0)  -->
<svg version="1.1" xmlns="http://www.w3.org/2000/svg" xmlns:xlink="http://www.w3.org/1999/xlink" x="0px" y="0px"
	 viewBox="0 0 588 527" style="enable-background:new 0 0 588 527;" xml:space="preserve">
<style type="text/css">
	.st0{display:none;fill:url(#SVGID_1_);}
	.st1{fill:url(#SVGID_00000144317875126995424630000015528030029970941325_);}
	.st2{fill:#1D2433;}
	.st3{fill:#FFFFFF;}
	.st4{fill:#77F28A;}
	.st5{fill:#EF5C00;}
	.st6{fill:#FFDB26;}
	.st7{fill:#262D3F;}
	.st8{display:none;opacity:0.26;}
	.st9{display:inline;}
	.st10{display:none;fill:none;stroke:#000000;stroke-width:5;stroke-miterlimit:10;}
	.st11{fill:#FFFFFF;stroke:#2C49B8;stroke-miterlimit:10;}
	.st12{display:none;fill:#2C49B8;}
	.st13{font-family:'FiraSans-Book';}
	.st14{font-size:36.1559px;}
	.st15{fill:none;stroke:#2C49B8;stroke-width:1.6765;stroke-miterlimit:10;}
	.st16{fill:none;stroke:#2C49B8;stroke-width:1.6765;stroke-linecap:round;stroke-linejoin:round;stroke-miterlimit:10;}
	.st17{display:none;}
	.st18{display:inline;opacity:0.22;}
	.st19{fill:#B3B3B3;}
	.st20{fill:#1E1F21;}
	.st21{fill:#333333;}
	.st22{fill:#F1F2F2;}
	.st23{display:inline;opacity:0.61;fill:#1E1F21;}
	.st24{fill:#58595B;}
	.st25{font-family:'Metropolis-Regular';}
	.st26{font-size:3.8929px;}
	.st27{fill:#C4222E;}
	.st28{opacity:0.22;}
	.st29{opacity:0.61;fill:#1E1F21;}
	.st30{display:none;fill:url(#SVGID_00000165942805963660050510000006460225963038479282_);}
	.st31{opacity:0.25;fill:#005DCC;}
	.st32{opacity:0.81;fill:#2546AF;}
	.st33{opacity:0.25;}
	.st34{opacity:0.63;}
	.st35{fill:#113468;}
	.st36{display:inline;opacity:0.25;fill:#4368B1;}
	.st37{display:inline;opacity:0.85;fill:#1839B2;}
	.st38{display:inline;opacity:0.25;}
	.st39{opacity:0.5;}
	.st40{fill:#121272;}
	.st41{opacity:0.82;fill:#7EABF1;}
	.st42{opacity:0.81;fill:#375BDD;}
	.st43{fill:#375BDD;}
	.st44{opacity:0.81;fill:#4862AC;}
	.st45{fill:#4862AC;}
	.st46{fill:url(#SVGID_00000060733425224052590730000011994754002281194917_);}
	.st47{opacity:0.25;fill:#4368B1;}
	.st48{opacity:0.85;fill:#1839B2;}
</style>
<g id="Layer_1">
	
		<linearGradient id="SVGID_1_" gradientUnits="userSpaceOnUse" x1="-448" y1="580" x2="-448" y2="80" gradientTransform="matrix(-1 0 0 1 -154 -80)">
		<stop  offset="0" style="stop-color:#FFFFFF"/>
		<stop  offset="1" style="stop-color:#E9FAFF"/>
	</linearGradient>
	<path class="st0" d="M580,500H8c-4.4,0-8-3.6-8-8V8c0-4.4,3.6-8,8-8h572c4.4,0,8,3.6,8,8v484C588,496.4,584.4,500,580,500z"/>
	
		<linearGradient id="SVGID_00000087400373366189212360000012458879151077955258_" gradientUnits="userSpaceOnUse" x1="-448.75" y1="580.5" x2="-448.75" y2="80.5" gradientTransform="matrix(-1 0 0 1 -154 -80)">
		<stop  offset="0" style="stop-color:#5E81F7;stop-opacity:0"/>
		<stop  offset="1" style="stop-color:#2546AF;stop-opacity:0.81"/>
	</linearGradient>
	<path style="fill:url(#SVGID_00000087400373366189212360000012458879151077955258_);" d="M580,500.5H9.5c-4.4,0-8-3.6-8-8V8.5
		c0-4.4,3.6-8,8-8H580c4.4,0,8,3.6,8,8v484C588,496.9,584.4,500.5,580,500.5z"/>
	<path class="st2" d="M127.3,68.3h340.4c1.3,0,2.6,0.5,3.5,1.5c0.9,0.9,1.5,2.2,1.5,3.5v20.2H122.3V73.3c0-1.3,0.5-2.6,1.5-3.5
		C124.7,68.9,126,68.3,127.3,68.3L127.3,68.3z"/>
	<g>
		<path class="st3" d="M122,93h350v297.3c0,1.2-0.5,2.3-1.5,3.1c-0.9,0.8-2.2,1.3-3.5,1.3H127c-1.3,0-2.6-0.5-3.5-1.3
			c-0.9-0.8-1.5-1.9-1.5-3.1V93z"/>
	</g>
	<path class="st4" d="M161.1,83.7c1.4,0,2.5-1.1,2.5-2.5s-1.1-2.5-2.5-2.5c-1.4,0-2.5,1.1-2.5,2.5S159.8,83.7,161.1,83.7z"/>
	<path class="st5" d="M143.2,83.7c1.4,0,2.5-1.1,2.5-2.5s-1.1-2.5-2.5-2.5c-1.4,0-2.5,1.1-2.5,2.5S141.8,83.7,143.2,83.7z"/>
	<path class="st6" d="M152,83.7c1.4,0,2.5-1.1,2.5-2.5s-1.1-2.5-2.5-2.5c-1.4,0-2.5,1.1-2.5,2.5S150.6,83.7,152,83.7z"/>
	<path class="st7" d="M421.3,130.9c0.9,0,1.7-0.8,1.7-1.7s-0.8-1.7-1.7-1.7c-0.9,0-1.7,0.8-1.7,1.7S420.4,130.9,421.3,130.9z"/>
	<path class="st7" d="M426.4,130.9c0.9,0,1.7-0.8,1.7-1.7s-0.8-1.7-1.7-1.7c-0.9,0-1.7,0.8-1.7,1.7S425.5,130.9,426.4,130.9z"/>
	<path class="st7" d="M431.5,130.9c0.9,0,1.7-0.8,1.7-1.7s-0.8-1.7-1.7-1.7c-0.9,0-1.7,0.8-1.7,1.7S430.5,130.9,431.5,130.9z"/>
</g>
<g id="Layer_3" class="st8">
	<g class="st9">
		<g>
			<g>
				<path class="st10" d="M428,373.8H178.8c-4.1,0-7.4-3.3-7.4-7.4v-180c0-4.1,3.3-7.4,7.4-7.4H428c4.1,0,7.4,3.3,7.4,7.4v180
					C435.5,370.4,432.1,373.8,428,373.8z"/>
			</g>
			<g>
				<path class="st11" d="M348.2,153.2l-193.1,0.9c-10.3,0-18.7-8.4-18.7-18.7l0,0c0-10.3,8.4-18.7,18.7-18.7l193.1-0.9
					c10.3,0,18.7,8.4,18.7,18.7v0C367,144.8,358.6,153.2,348.2,153.2z"/>
				<text transform="matrix(1 0 0 1 155.2476 146.2738)" class="st12 st13 st14">www</text>
				<g>
					<circle class="st15" cx="343.5" cy="133.6" r="8"/>
					<line class="st16" x1="348.7" y1="139.7" x2="353.6" y2="144.5"/>
				</g>
			</g>
		</g>
	</g>
</g>
<g id="Layer_4" class="st17">
	<g class="st18">
		<g>
			<path class="st19" d="M241.7,336.9h-86.4c-0.8,0-1.4-0.6-1.4-1.4V332c0-0.8,0.6-1.4,1.4-1.4h86.4c0.8,0,1.4,0.6,1.4,1.4v3.5
				C243.1,336.3,242.5,336.9,241.7,336.9z"/>
			<path class="st19" d="M209.8,346.8h-54.5c-0.8,0-1.4-0.6-1.4-1.4v-3.5c0-0.8,0.6-1.4,1.4-1.4h54.5c0.8,0,1.4,0.6,1.4,1.4v3.5
				C211.3,346.2,210.6,346.8,209.8,346.8z"/>
		</g>
		<g>
			<path class="st20" d="M438.8,219.4h-44.4c-3.5,0-6.3-2.8-6.3-6.3v-25.8c0-3.5,2.8-6.3,6.3-6.3h44.4c3.5,0,6.3,2.8,6.3,6.3v25.8
				C445.1,216.6,442.3,219.4,438.8,219.4z"/>
			<g>
				
					<ellipse transform="matrix(0.8896 -0.4567 0.4567 0.8896 -45.4845 212.3775)" class="st21" cx="416.6" cy="200.3" rx="12.7" ry="12.7"/>
				<g>
					<path class="st22" d="M411.9,200.3v-5.5c0-1,1.1-1.7,2-1.2l4.8,2.8l4.8,2.8c0.9,0.5,0.9,1.8,0,2.3l-4.8,2.8L414,207
						c-0.9,0.5-2-0.1-2-1.2V200.3z"/>
				</g>
			</g>
			<path class="st19" d="M443,226.8h-52.7c-0.8,0-1.4-0.6-1.4-1.4v-2.3c0-0.8,0.6-1.4,1.4-1.4H443c0.8,0,1.4,0.6,1.4,1.4v2.3
				C444.5,226.1,443.8,226.8,443,226.8z"/>
			<path class="st19" d="M416.8,231.9h-26.5c-0.8,0-1.4-0.6-1.4-1.4v-0.7c0-0.8,0.6-1.4,1.4-1.4h26.5c0.8,0,1.4,0.6,1.4,1.4v0.7
				C418.2,231.2,417.6,231.9,416.8,231.9z"/>
		</g>
		<g>
			<path class="st20" d="M438.8,282.2h-44.4c-3.5,0-6.3-2.8-6.3-6.3v-25.8c0-3.5,2.8-6.3,6.3-6.3h44.4c3.5,0,6.3,2.8,6.3,6.3V276
				C445.1,279.4,442.3,282.2,438.8,282.2z"/>
			<g>
				
					<ellipse transform="matrix(0.8362 -0.5484 0.5484 0.8362 -76.058 271.5708)" class="st21" cx="416.6" cy="263.1" rx="12.7" ry="12.7"/>
				<g>
					<path class="st22" d="M411.9,263.1v-5.5c0-1,1.1-1.7,2-1.2l4.8,2.8l4.8,2.8c0.9,0.5,0.9,1.8,0,2.3l-4.8,2.8l-4.8,2.8
						c-0.9,0.5-2-0.1-2-1.2V263.1z"/>
				</g>
			</g>
			<path class="st19" d="M443,289.6h-52.7c-0.8,0-1.4-0.6-1.4-1.4v-2.3c0-0.8,0.6-1.4,1.4-1.4H443c0.8,0,1.4,0.6,1.4,1.4v2.3
				C444.5,289,443.8,289.6,443,289.6z"/>
			<path class="st19" d="M416.8,294.7h-26.5c-0.8,0-1.4-0.6-1.4-1.4v-0.7c0-0.8,0.6-1.4,1.4-1.4h26.5c0.8,0,1.4,0.6,1.4,1.4v0.7
				C418.2,294,417.6,294.7,416.8,294.7z"/>
		</g>
	</g>
</g>
<g id="Layer_5" class="st17">
	<path class="st23" d="M356.7,323.3H156.3c-3.5,0-6.3-2.8-6.3-6.3V186.4c0-3.5,2.8-6.3,6.3-6.3h200.4c3.5,0,6.3,2.8,6.3,6.3V317
		C362.9,320.5,360.1,323.3,356.7,323.3z"/>
	<g class="st9">
		
			<ellipse transform="matrix(0.8956 -0.4448 0.4448 0.8956 -83.1689 139.8828)" class="st21" cx="256.5" cy="247.2" rx="23.9" ry="23.9"/>
		<g>
			<path class="st22" d="M247.7,247.2v-10.4c0-2,2.1-3.2,3.8-2.2l9,5.2l9,5.2c1.7,1,1.7,3.4,0,4.4l-9,5.2l-9,5.2
				c-1.7,1-3.8-0.2-3.8-2.2V247.2z"/>
		</g>
	</g>
	<g class="st9">
		<path class="st24" d="M358.2,310.8H155.8c-0.3,0-0.5-0.2-0.5-0.5l0,0c0-0.3,0.2-0.5,0.5-0.5h202.4c0.3,0,0.5,0.2,0.5,0.5l0,0
			C358.7,310.6,358.4,310.8,358.2,310.8z"/>
		<text transform="matrix(1 0 0 1 192.6531 317.4697)" class="st22 st25 st26">0:00</text>
		<path class="st22" d="M340.5,317.9h-1.9c-0.2,0-0.3-0.1-0.3-0.3v-1.2c0-0.2,0.1-0.3,0.3-0.3h1.9c0.2,0,0.3,0.1,0.3,0.3v1.2
			C340.8,317.8,340.7,317.9,340.5,317.9z"/>
		<g>
			<path class="st22" d="M331.4,314.5c0.3,0,0.5,0.2,0.5,0.5v2.7c0,0.3-0.2,0.5-0.5,0.5h-4.1c-0.3,0-0.5-0.2-0.5-0.5V315
				c0-0.3,0.2-0.5,0.5-0.5H331.4 M331.4,313.8h-4.1c-0.7,0-1.3,0.6-1.3,1.3v2.7c0,0.7,0.6,1.3,1.3,1.3h4.1c0.7,0,1.3-0.6,1.3-1.3
				V315C332.6,314.3,332.1,313.8,331.4,313.8L331.4,313.8z"/>
		</g>
		<g>
			<path class="st22" d="M342.4,314.5c0.3,0,0.5,0.2,0.5,0.5v2.7c0,0.3-0.2,0.5-0.5,0.5h-4.1c-0.3,0-0.5-0.2-0.5-0.5V315
				c0-0.3,0.2-0.5,0.5-0.5H342.4 M342.4,313.8h-4.1c-0.7,0-1.3,0.6-1.3,1.3v2.7c0,0.7,0.6,1.3,1.3,1.3h4.1c0.7,0,1.3-0.6,1.3-1.3
				V315C343.6,314.3,343.1,313.8,342.4,313.8L342.4,313.8z"/>
		</g>
		<g>
			<path class="st22" d="M349.2,316.3v-1.6c0-0.2,0.2-0.4,0.4-0.4h1.3v-0.6h-1.3c-0.5,0-0.9,0.4-0.9,0.9v1.6H349.2z"/>
			<path class="st22" d="M351.6,314.3h1.3c0.2,0,0.4,0.2,0.4,0.4v1.6h0.6v-1.6c0-0.5-0.4-0.9-0.9-0.9h-1.3V314.3z"/>
			<path class="st22" d="M353.3,317v1c0,0.2-0.2,0.4-0.4,0.4h-1.3v0.6h1.3c0.5,0,0.9-0.4,0.9-0.9v-1H353.3z"/>
			<path class="st22" d="M350.9,318.4h-1.3c-0.2,0-0.4-0.2-0.4-0.4v-1h-0.6v1c0,0.5,0.4,0.9,0.9,0.9h1.3V318.4z"/>
		</g>
		<g>
			<g>
				<path class="st22" d="M173,316.4v-1.4c0-0.1,0.1-0.1,0.1-0.1l1.2,0.7l1.2,0.7c0.1,0,0.1,0.1,0,0.2l-1.2,0.7l-1.2,0.7
					c-0.1,0-0.1,0-0.1-0.1V316.4z"/>
				<path class="st22" d="M183.8,315.3h-1c-0.1,0-0.2,0.1-0.2,0.2v0.9v0.9c0,0.1,0.1,0.2,0.2,0.2h1l1.5,1.5v-2.6v-2.6L183.8,315.3z"
					/>
				<path class="st22" d="M176.4,318L176.4,318c-0.1,0-0.3-0.1-0.3-0.3V315c0-0.1,0.1-0.3,0.3-0.3l0,0c0.1,0,0.3,0.1,0.3,0.3v2.7
					C176.7,317.8,176.6,318,176.4,318z"/>
			</g>
			<path class="st22" d="M186,314.7v0.4c0.4,0.2,0.7,0.7,0.7,1.2c0,0.5-0.3,1-0.7,1.2v0.4c0.7-0.3,1.1-0.9,1.1-1.6
				S186.6,315,186,314.7z"/>
			<g>
				<path class="st22" d="M186,313.5v0.7c1,0.3,1.6,1.1,1.6,2.2c0,1-0.7,1.9-1.6,2.2v0.7c1.3-0.3,2.3-1.5,2.3-2.9
					C188.3,315,187.3,313.8,186,313.5z"/>
			</g>
			<path class="st22" d="M161,318.8L161,318.8c-0.4,0-0.7-0.3-0.7-0.7v-3.5c0-0.4,0.3-0.7,0.7-0.7l0,0c0.4,0,0.7,0.3,0.7,0.7v3.5
				C161.6,318.5,161.3,318.8,161,318.8z"/>
			<path class="st22" d="M164,318.8L164,318.8c-0.4,0-0.7-0.3-0.7-0.7v-3.5c0-0.4,0.3-0.7,0.7-0.7l0,0c0.4,0,0.7,0.3,0.7,0.7v3.5
				C164.7,318.5,164.4,318.8,164,318.8z"/>
		</g>
		<path class="st27" d="M159.1,310c0,1.3-1.1,2.4-2.4,2.4c-1.3,0-2.4-1.1-2.4-2.4c0-1.3,1.1-2.4,2.4-2.4
			C158,307.6,159.1,308.7,159.1,310z"/>
		<g>
			<path class="st22" d="M316.6,316.9c0-0.2,0-0.5,0-0.7c0.2-0.1,0.5-0.2,0.7-0.3c0.1,0,0.1-0.1,0.2-0.2c0.2-0.2,0-0.4,0-0.5
				c-0.2-0.5-0.2-0.5,0.2-0.9c0.1,0,0.2-0.1,0.2,0c0.2,0.1,0.4,0.1,0.6,0.2c0.2,0.1,0.5-0.1,0.5-0.2c0.1-0.2,0.2-0.5,0.3-0.7
				c0.2,0,0.4,0,0.7,0c0.1,0.2,0.2,0.4,0.3,0.6c0.1,0.2,0.2,0.2,0.3,0.3c0.2,0.1,0.3,0,0.5-0.1c0.5-0.2,0.5-0.2,0.9,0.2
				c0.1,0.1,0.1,0.2,0.1,0.3c-0.1,0.2-0.2,0.4-0.2,0.5c-0.1,0.2,0,0.5,0.2,0.5c0.2,0.1,0.4,0.2,0.6,0.2c0.1,0,0.1,0.1,0.1,0.2
				c0,0.5,0,0.5-0.5,0.8c0,0-0.1,0-0.1,0.1c-0.3,0.1-0.4,0.4-0.3,0.7c0.1,0.2,0.1,0.3,0.2,0.5c0,0.1,0,0.1,0,0.2
				c-0.4,0.4-0.4,0.4-0.9,0.2c0,0-0.1,0-0.1,0c-0.3-0.1-0.6-0.1-0.7,0.3c-0.1,0.2-0.1,0.3-0.2,0.5c0,0.1-0.1,0.1-0.2,0.1
				c-0.7,0-0.5,0.1-0.8-0.5c0-0.1,0-0.1-0.1-0.2c-0.1-0.1-0.1-0.2-0.2-0.2c-0.2-0.2-0.4,0-0.5,0.1c-0.5,0.2-0.5,0.2-0.9-0.2
				c-0.1-0.1-0.1-0.2-0.1-0.2c0.1-0.2,0.2-0.4,0.2-0.6c0.1-0.2-0.1-0.4-0.2-0.5C317.1,317.1,316.9,317,316.6,316.9z M320.7,316.5
				c0-0.5-0.4-1-1-1c-0.5,0-1,0.4-1,0.9c0,0.5,0.4,1,1,1C320.2,317.5,320.7,317,320.7,316.5z"/>
		</g>
	</g>
</g>
<g id="Layer_6">
	<g>
		<path class="st11" d="M352.2,154.5l-193.1,0.9c-10.3,0-18.7-8.4-18.7-18.7l0,0c0-10.3,8.4-18.7,18.7-18.7l193.1-0.9
			c10.3,0,18.7,8.4,18.7,18.7v0C371,146.1,362.6,154.5,352.2,154.5z"/>
		<text transform="matrix(1 0 0 1 159.2452 147.6105)" class="st12 st13 st14">www</text>
		<g>
			<circle class="st15" cx="347.5" cy="134.9" r="8"/>
			<line class="st16" x1="352.7" y1="141" x2="357.6" y2="145.9"/>
		</g>
	</g>
	<g class="st28">
		<g>
			<path class="st19" d="M245.7,338.2h-86.4c-0.8,0-1.4-0.6-1.4-1.4v-3.5c0-0.8,0.6-1.4,1.4-1.4h86.4c0.8,0,1.4,0.6,1.4,1.4v3.5
				C247.1,337.6,246.5,338.2,245.7,338.2z"/>
			<path class="st19" d="M213.8,348.2h-54.5c-0.8,0-1.4-0.6-1.4-1.4v-3.5c0-0.8,0.6-1.4,1.4-1.4h54.5c0.8,0,1.4,0.6,1.4,1.4v3.5
				C215.3,347.5,214.6,348.2,213.8,348.2z"/>
		</g>
		<g>
			<path class="st20" d="M442.8,220.7h-44.4c-3.5,0-6.3-2.8-6.3-6.3v-25.8c0-3.5,2.8-6.3,6.3-6.3h44.4c3.5,0,6.3,2.8,6.3,6.3v25.8
				C449.1,217.9,446.3,220.7,442.8,220.7z"/>
			<g>
				
					<ellipse transform="matrix(0.8896 -0.4567 0.4567 0.8896 -45.6537 214.3508)" class="st21" cx="420.6" cy="201.6" rx="12.7" ry="12.7"/>
				<g>
					<path class="st22" d="M415.9,201.6v-5.5c0-1,1.1-1.7,2-1.2l4.8,2.8l4.8,2.8c0.9,0.5,0.9,1.8,0,2.3l-4.8,2.8l-4.8,2.8
						c-0.9,0.5-2-0.1-2-1.2V201.6z"/>
				</g>
			</g>
			<path class="st19" d="M447,228.1h-52.7c-0.8,0-1.4-0.6-1.4-1.4v-2.3c0-0.8,0.6-1.4,1.4-1.4H447c0.8,0,1.4,0.6,1.4,1.4v2.3
				C448.5,227.5,447.8,228.1,447,228.1z"/>
			<path class="st19" d="M420.8,233.2h-26.5c-0.8,0-1.4-0.6-1.4-1.4v-0.7c0-0.8,0.6-1.4,1.4-1.4h26.5c0.8,0,1.4,0.6,1.4,1.4v0.7
				C422.2,232.6,421.6,233.2,420.8,233.2z"/>
		</g>
		<g>
			<path class="st20" d="M442.8,283.6h-44.4c-3.5,0-6.3-2.8-6.3-6.3v-25.8c0-3.5,2.8-6.3,6.3-6.3h44.4c3.5,0,6.3,2.8,6.3,6.3v25.8
				C449.1,280.8,446.3,283.6,442.8,283.6z"/>
			<g>
				
					<ellipse transform="matrix(0.8362 -0.5484 0.5484 0.8362 -76.1362 273.9821)" class="st21" cx="420.6" cy="264.4" rx="12.7" ry="12.7"/>
				<g>
					<path class="st22" d="M415.9,264.4v-5.5c0-1,1.1-1.7,2-1.2l4.8,2.8l4.8,2.8c0.9,0.5,0.9,1.8,0,2.3l-4.8,2.8l-4.8,2.8
						c-0.9,0.5-2-0.1-2-1.2V264.4z"/>
				</g>
			</g>
			<path class="st19" d="M447,290.9h-52.7c-0.8,0-1.4-0.6-1.4-1.4v-2.3c0-0.8,0.6-1.4,1.4-1.4H447c0.8,0,1.4,0.6,1.4,1.4v2.3
				C448.5,290.3,447.8,290.9,447,290.9z"/>
			<path class="st19" d="M420.8,296h-26.5c-0.8,0-1.4-0.6-1.4-1.4v-0.7c0-0.8,0.6-1.4,1.4-1.4h26.5c0.8,0,1.4,0.6,1.4,1.4v0.7
				C422.2,295.4,421.6,296,420.8,296z"/>
		</g>
	</g>
	<path class="st29" d="M360.7,324.6H160.3c-3.5,0-6.3-2.8-6.3-6.3V187.8c0-3.5,2.8-6.3,6.3-6.3h200.4c3.5,0,6.3,2.8,6.3,6.3v130.6
		C366.9,321.8,364.1,324.6,360.7,324.6z"/>
	<g>
		
			<ellipse transform="matrix(0.8956 -0.4448 0.4448 0.8956 -83.3463 141.8005)" class="st21" cx="260.5" cy="248.5" rx="23.9" ry="23.9"/>
		<g>
			<path class="st22" d="M251.7,248.5v-10.4c0-2,2.1-3.2,3.8-2.2l9,5.2l9,5.2c1.7,1,1.7,3.4,0,4.4l-9,5.2l-9,5.2
				c-1.7,1-3.8-0.2-3.8-2.2V248.5z"/>
		</g>
	</g>
	<g>
		<path class="st24" d="M362.1,312.2H159.8c-0.3,0-0.5-0.2-0.5-0.5l0,0c0-0.3,0.2-0.5,0.5-0.5h202.4c0.3,0,0.5,0.2,0.5,0.5l0,0
			C362.7,312,362.4,312.2,362.1,312.2z"/>
		<text transform="matrix(1 0 0 1 196.6508 318.8065)" class="st22 st25 st26">0:00</text>
		<path class="st22" d="M344.5,319.2h-1.9c-0.2,0-0.3-0.1-0.3-0.3v-1.2c0-0.2,0.1-0.3,0.3-0.3h1.9c0.2,0,0.3,0.1,0.3,0.3v1.2
			C344.8,319.1,344.7,319.2,344.5,319.2z"/>
		<g>
			<path class="st22" d="M335.4,315.9c0.3,0,0.5,0.2,0.5,0.5v2.7c0,0.3-0.2,0.5-0.5,0.5h-4.1c-0.3,0-0.5-0.2-0.5-0.5v-2.7
				c0-0.3,0.2-0.5,0.5-0.5H335.4 M335.4,315.1h-4.1c-0.7,0-1.3,0.6-1.3,1.3v2.7c0,0.7,0.6,1.3,1.3,1.3h4.1c0.7,0,1.3-0.6,1.3-1.3
				v-2.7C336.6,315.7,336.1,315.1,335.4,315.1L335.4,315.1z"/>
		</g>
		<g>
			<path class="st22" d="M346.4,315.9c0.3,0,0.5,0.2,0.5,0.5v2.7c0,0.3-0.2,0.5-0.5,0.5h-4.1c-0.3,0-0.5-0.2-0.5-0.5v-2.7
				c0-0.3,0.2-0.5,0.5-0.5H346.4 M346.4,315.1h-4.1c-0.7,0-1.3,0.6-1.3,1.3v2.7c0,0.7,0.6,1.3,1.3,1.3h4.1c0.7,0,1.3-0.6,1.3-1.3
				v-2.7C347.6,315.7,347.1,315.1,346.4,315.1L346.4,315.1z"/>
		</g>
		<g>
			<path class="st22" d="M353.2,317.6V316c0-0.2,0.2-0.4,0.4-0.4h1.3v-0.6h-1.3c-0.5,0-0.9,0.4-0.9,0.9v1.6H353.2z"/>
			<path class="st22" d="M355.6,315.7h1.3c0.2,0,0.4,0.2,0.4,0.4v1.6h0.6V316c0-0.5-0.4-0.9-0.9-0.9h-1.3V315.7z"/>
			<path class="st22" d="M357.3,318.3v1c0,0.2-0.2,0.4-0.4,0.4h-1.3v0.6h1.3c0.5,0,0.9-0.4,0.9-0.9v-1H357.3z"/>
			<path class="st22" d="M354.9,319.7h-1.3c-0.2,0-0.4-0.2-0.4-0.4v-1h-0.6v1c0,0.5,0.4,0.9,0.9,0.9h1.3V319.7z"/>
		</g>
		<g>
			<g>
				<path class="st22" d="M177,317.7v-1.4c0-0.1,0.1-0.1,0.1-0.1l1.2,0.7l1.2,0.7c0.1,0,0.1,0.1,0,0.2l-1.2,0.7l-1.2,0.7
					c-0.1,0-0.1,0-0.1-0.1V317.7z"/>
				<path class="st22" d="M187.8,316.7h-1c-0.1,0-0.2,0.1-0.2,0.2v0.9v0.9c0,0.1,0.1,0.2,0.2,0.2h1l1.5,1.5v-2.6v-2.6L187.8,316.7z"
					/>
				<path class="st22" d="M180.4,319.3L180.4,319.3c-0.1,0-0.3-0.1-0.3-0.3v-2.7c0-0.1,0.1-0.3,0.3-0.3l0,0c0.1,0,0.3,0.1,0.3,0.3
					v2.7C180.7,319.2,180.6,319.3,180.4,319.3z"/>
			</g>
			<path class="st22" d="M190,316.1v0.4c0.4,0.2,0.7,0.7,0.7,1.2c0,0.5-0.3,1-0.7,1.2v0.4c0.7-0.3,1.1-0.9,1.1-1.6
				C191.1,317,190.6,316.3,190,316.1z"/>
			<g>
				<path class="st22" d="M190,314.8v0.7c1,0.3,1.6,1.1,1.6,2.2c0,1-0.7,1.9-1.6,2.2v0.7c1.3-0.3,2.3-1.5,2.3-2.9
					C192.3,316.3,191.3,315.1,190,314.8z"/>
			</g>
			<path class="st22" d="M165,320.1L165,320.1c-0.4,0-0.7-0.3-0.7-0.7v-3.5c0-0.4,0.3-0.7,0.7-0.7l0,0c0.4,0,0.7,0.3,0.7,0.7v3.5
				C165.6,319.8,165.3,320.1,165,320.1z"/>
			<path class="st22" d="M168,320.1L168,320.1c-0.4,0-0.7-0.3-0.7-0.7v-3.5c0-0.4,0.3-0.7,0.7-0.7l0,0c0.4,0,0.7,0.3,0.7,0.7v3.5
				C168.7,319.8,168.4,320.1,168,320.1z"/>
		</g>
		<path class="st27" d="M163.1,311.3c0,1.3-1.1,2.4-2.4,2.4s-2.4-1.1-2.4-2.4c0-1.3,1.1-2.4,2.4-2.4S163.1,310,163.1,311.3z"/>
		<g>
			<path class="st22" d="M320.6,318.2c0-0.2,0-0.5,0-0.7c0.2-0.1,0.5-0.2,0.7-0.3c0.1,0,0.1-0.1,0.2-0.2c0.2-0.2,0-0.4,0-0.5
				c-0.2-0.5-0.2-0.5,0.2-0.9c0.1,0,0.2-0.1,0.2,0c0.2,0.1,0.4,0.1,0.6,0.2c0.2,0.1,0.5-0.1,0.5-0.2c0.1-0.2,0.2-0.5,0.3-0.7
				c0.2,0,0.4,0,0.7,0c0.1,0.2,0.2,0.4,0.3,0.6c0.1,0.2,0.2,0.2,0.3,0.3c0.2,0.1,0.3,0,0.5-0.1c0.5-0.2,0.5-0.2,0.9,0.2
				c0.1,0.1,0.1,0.2,0.1,0.3c-0.1,0.2-0.2,0.4-0.2,0.5c-0.1,0.2,0,0.5,0.2,0.5c0.2,0.1,0.4,0.2,0.6,0.2c0.1,0,0.1,0.1,0.1,0.2
				c0,0.5,0,0.5-0.5,0.8c0,0-0.1,0-0.1,0.1c-0.3,0.1-0.4,0.4-0.3,0.7c0.1,0.2,0.1,0.3,0.2,0.5c0,0.1,0,0.1,0,0.2
				c-0.4,0.4-0.4,0.4-0.9,0.2c0,0-0.1,0-0.1,0c-0.3-0.1-0.6-0.1-0.7,0.3c-0.1,0.2-0.1,0.3-0.2,0.5c0,0.1-0.1,0.1-0.2,0.1
				c-0.7,0-0.5,0.1-0.8-0.5c0-0.1,0-0.1-0.1-0.2c-0.1-0.1-0.1-0.2-0.2-0.2c-0.2-0.2-0.4,0-0.5,0.1c-0.5,0.2-0.5,0.2-0.9-0.2
				c-0.1-0.1-0.1-0.2-0.1-0.2c0.1-0.2,0.2-0.4,0.2-0.6c0.1-0.2-0.1-0.4-0.2-0.5C321.1,318.4,320.9,318.3,320.6,318.2z M324.7,317.8
				c0-0.5-0.4-1-1-1c-0.5,0-1,0.4-1,0.9c0,0.5,0.4,1,1,1C324.2,318.8,324.7,318.4,324.7,317.8z"/>
		</g>
	</g>
	<g>
		
			<linearGradient id="SVGID_00000101811653702054180660000017419695171121868978_" gradientUnits="userSpaceOnUse" x1="119.3784" y1="531.1596" x2="308.0258" y2="289.0903">
			<stop  offset="0" style="stop-color:#425EAB"/>
			<stop  offset="0.9944" style="stop-color:#7FBDFF;stop-opacity:0"/>
		</linearGradient>
		<path style="display:none;fill:url(#SVGID_00000101811653702054180660000017419695171121868978_);" d="M274.7,396.6L169.2,334
			c-6.7-4-6.6-13.7,0.2-17.5l104.9-58.8c3.1-1.7,6.8-1.7,9.9,0L389.7,317c6.8,3.8,6.9,13.5,0.2,17.5L285,396.6
			C281.8,398.5,277.9,398.5,274.7,396.6z"/>
		<g>
			<g>
				<path class="st31" d="M257.8,142.6v62.3c0,3.5,4.3,7.7,6.8,6.7l7.4-3.1c0.7-0.3,1.7-0.2,2.8,0.4l83.3,48c2.2,1.3,4,0.5,4-1.7
					v-52.6c0-2.2-1.8-5-4-6.2l-96.3-55.4C259.5,139.7,257.8,140.4,257.8,142.6z"/>
				<path class="st32" d="M250.4,146.6v62.3c0,3.5,4.3,7.7,6.8,6.7l7.4-3.1c0.7-0.3,1.7-0.2,2.8,0.4l83.3,48c2.2,1.3,4,0.5,4-1.7
					v-52.6c0-2.2-1.8-5-4-6.2L254.3,145C252.1,143.7,250.4,144.5,250.4,146.6z"/>
				<path class="st33" d="M350.6,200.4L254.3,145c-2.2-1.3-4-0.5-4,1.7v1c0.3,0.1,0.6,0.2,0.8,0.4l96.3,55.4c2.2,1.3,4,4,4,6.2v51.5
					c1.8,0.6,3.1-0.2,3.1-2.1v-52.6C354.6,204.4,352.8,201.6,350.6,200.4z"/>
				<g>
					<g class="st34">
						<path class="st3" d="M281.3,186.6l46.9,27.1c0.7,0.4,1.3,0.2,1.3-0.5l0,0c0-0.7-0.6-1.6-1.3-2l-46.9-27.1
							c-0.7-0.4-1.3-0.2-1.3,0.5l0,0C280.1,185.4,280.6,186.2,281.3,186.6z"/>
					</g>
					<g class="st34">
						<path class="st3" d="M281.3,193.8l46.9,27.1c0.7,0.4,1.3,0.2,1.3-0.5l0,0c0-0.7-0.6-1.6-1.3-2l-46.9-27.1
							c-0.7-0.4-1.3-0.2-1.3,0.5l0,0C280.1,192.5,280.6,193.4,281.3,193.8z"/>
					</g>
					<g class="st34">
						<path class="st35" d="M281,200.7l34.7,19.9c0.5,0.3,0.9,0.1,0.9-0.4v-0.7c0-0.5-0.4-1.1-0.9-1.4L281,198.2
							c-0.5-0.3-0.9-0.1-0.9,0.4v0.7C280.1,199.8,280.5,200.5,281,200.7z"/>
					</g>
				</g>
			</g>
			<g class="st17">
				<path class="st36" d="M282.3,247.9v62.3c0,3.5-4.3,2.9-6.8-1.1l-7.4-11.6c-0.7-1.2-1.7-2.2-2.8-2.8l-82.9-47.4
					c-2.2-1.2-4-4-4-6.2v-52.6c0-2.2,1.8-2.9,4-1.7l95.8,54.8C280.5,242.9,282.3,245.7,282.3,247.9z"/>
				<path class="st37" d="M276.2,254v62.2c0,3.5-4.3,2.9-6.8-1.1l-7.4-11.6c-0.7-1.2-1.7-2.2-2.8-2.8l-82.9-47.4c-2.2-1.2-4-4-4-6.2
					v-52.6c0-2.2,1.8-2.9,4-1.7l95.8,54.8C274.4,249,276.2,251.8,276.2,254z"/>
				<path class="st38" d="M272.2,247.8L176.4,193c-2.2-1.2-4-0.5-4,1.7v1.3c0.2,0.1,0.4,0.2,0.6,0.3l95.8,54.8c2.2,1.2,4,4,4,6.2
					v60.9c1.8,0.7,3.3,0.1,3.3-2V254C276.2,251.8,274.4,249,272.2,247.8z"/>
				<g class="st9">
					<g class="st34">
						<path class="st3" d="M242.1,256.2l-46.4-26.5c-0.7-0.4-1.3-1.3-1.3-2v0c0-0.7,0.6-0.9,1.3-0.5l46.4,26.5
							c0.7,0.4,1.3,1.3,1.3,2l0,0C243.3,256.3,242.8,256.5,242.1,256.2z"/>
					</g>
					<g class="st34">
						<path class="st3" d="M242.1,263.3l-46.4-26.5c-0.7-0.4-1.3-1.3-1.3-2l0,0c0-0.7,0.6-0.9,1.3-0.5l46.4,26.5
							c0.7,0.4,1.3,1.3,1.3,2l0,0C243.3,263.5,242.8,263.7,242.1,263.3z"/>
					</g>
					<g class="st39">
						<path class="st40" d="M242.4,270.7l-34.7-19.8c-0.5-0.3-0.9-0.9-0.9-1.4v-0.7c0-0.5,0.4-0.7,0.9-0.4l34.7,19.8
							c0.5,0.3,0.9,0.9,0.9,1.4v0.7C243.3,270.8,242.9,271,242.4,270.7z"/>
					</g>
				</g>
			</g>
			<g>
				<path class="st41" d="M398.3,348.9l-107.6-57.4c-1.7-0.9-3.2-3.1-3.2-4.8v-38.6c0-1.7,1.4-2.4,3.2-1.5L398.3,304
					c1.7,0.9,3.2,3.1,3.2,4.8v38.6C401.4,349.2,400,349.9,398.3,348.9z"/>
				<path class="st33" d="M398.3,304l-107.6-57.4c-1.7-0.9-3.2-0.3-3.2,1.5v2.1l107.3,57.3c1.7,0.9,3.2,3.1,3.2,4.8v36.5l0.3,0.1
					c1.7,0.9,3.2,0.3,3.2-1.5v-38.6C401.4,307.1,400,305,398.3,304z"/>
				<g>
					<path class="st42" d="M351.1,294.8l-37.6-20.1c-0.5-0.3-0.9-0.8-0.9-1.3l0,0c0-0.5,0.4-0.7,0.9-0.4l37.6,20.1
						c0.5,0.3,0.9,0.8,0.9,1.3l0,0C352,294.9,351.6,295.1,351.1,294.8z"/>
					<path class="st42" d="M351.1,300.7l-37.6-20.1c-0.5-0.3-0.9-0.8-0.9-1.3l0,0c0-0.5,0.4-0.7,0.9-0.4l37.6,20.1
						c0.5,0.3,0.9,0.8,0.9,1.3l0,0C352,300.8,351.6,300.9,351.1,300.7z"/>
					<path class="st42" d="M351.1,306.6l-37.6-20.1c-0.5-0.3-0.9-0.8-0.9-1.3l0,0c0-0.5,0.4-0.7,0.9-0.4l37.6,20.1
						c0.5,0.3,0.9,0.8,0.9,1.3l0,0C352,306.6,351.6,306.8,351.1,306.6z"/>
					<path class="st43" d="M333.3,302.9l-20-10.7c-0.3-0.2-0.6-0.6-0.6-1v-0.5c0-0.3,0.3-0.5,0.6-0.3l20,10.7c0.3,0.2,0.6,0.6,0.6,1
						v0.5C333.9,303,333.7,303.1,333.3,302.9z"/>
				</g>
			</g>
			<g>
				<path class="st41" d="M222.1,189.1l-70.9-42c-1.7-1-3.2-3.3-3.2-5v-38.6c0-1.7,1.4-2.3,3.2-1.3l70.9,42c1.7,1,3.2,3.3,3.2,5
					v38.6C225.3,189.5,223.9,190.1,222.1,189.1z"/>
				<path class="st33" d="M222.1,144.2l-70.9-42c-1.6-0.9-2.9-0.5-3.1,0.8l69.5,41.2c1.7,1,3.2,3.3,3.2,5v38.6c0,0.2,0,0.3,0,0.5
					l1.4,0.8c1.7,1,3.2,0.5,3.2-1.3v-38.6C225.3,147.5,223.9,145.2,222.1,144.2z"/>
				<g>
					<path class="st44" d="M205.6,149.5L168,127.3c-0.5-0.3-0.9-0.9-0.9-1.4l0,0c0-0.5,0.4-0.6,0.9-0.4l37.6,22.2
						c0.5,0.3,0.9,0.9,0.9,1.4l0,0C206.5,149.6,206.1,149.8,205.6,149.5z"/>
					<path class="st44" d="M205.6,155.4L168,133.1c-0.5-0.3-0.9-0.9-0.9-1.4l0,0c0-0.5,0.4-0.6,0.9-0.4l37.6,22.2
						c0.5,0.3,0.9,0.9,0.9,1.4l0,0C206.5,155.5,206.1,155.7,205.6,155.4z"/>
					<path class="st44" d="M205.6,161.2L168,139c-0.5-0.3-0.9-0.9-0.9-1.4l0,0c0-0.5,0.4-0.6,0.9-0.4l37.6,22.2
						c0.5,0.3,0.9,0.9,0.9,1.4v0C206.5,161.4,206.1,161.5,205.6,161.2z"/>
					<path class="st45" d="M187.8,156.6l-20-11.8c-0.3-0.2-0.6-0.7-0.6-1v-0.5c0-0.3,0.3-0.5,0.6-0.3l20,11.8c0.3,0.2,0.6,0.7,0.6,1
						v0.5C188.4,156.7,188.1,156.8,187.8,156.6z"/>
				</g>
			</g>
		</g>
	</g>
</g>
<g id="Layer_2" class="st17">
	<g class="st9">
		
			<linearGradient id="SVGID_00000147900151079371593370000005638174834162454675_" gradientUnits="userSpaceOnUse" x1="280.6879" y1="600.6851" x2="469.3353" y2="358.6159">
			<stop  offset="0" style="stop-color:#425EAB"/>
			<stop  offset="0.9944" style="stop-color:#7FBDFF;stop-opacity:0"/>
		</linearGradient>
		<path style="fill:url(#SVGID_00000147900151079371593370000005638174834162454675_);" d="M436,466.2l-105.5-62.6
			c-6.7-4-6.6-13.7,0.2-17.5l104.9-58.8c3.1-1.7,6.8-1.7,9.9,0L551,386.6c6.8,3.8,6.9,13.5,0.2,17.5l-104.9,62.1
			C443.1,468.1,439.2,468.1,436,466.2z"/>
		<g>
			<g>
				<path class="st31" d="M450.6,227.5v62.3c0,3.5,4.3,7.7,6.8,6.7l7.4-3.1c0.7-0.3,1.7-0.2,2.8,0.4l83.3,48c2.2,1.3,4,0.5,4-1.7
					v-52.6c0-2.2-1.8-5-4-6.2l-96.3-55.4C452.4,224.6,450.6,225.3,450.6,227.5z"/>
				<path class="st32" d="M443.2,231.5v62.3c0,3.5,4.3,7.7,6.8,6.7l7.4-3.1c0.7-0.3,1.7-0.2,2.8,0.4l83.3,48c2.2,1.3,4,0.5,4-1.7
					v-52.6c0-2.2-1.8-5-4-6.2l-96.3-55.4C445,228.6,443.2,229.3,443.2,231.5z"/>
				<path class="st33" d="M543.5,285.3l-96.3-55.4c-2.2-1.3-4-0.5-4,1.7v1c0.3,0.1,0.6,0.2,0.8,0.4l96.3,55.4c2.2,1.3,4,4,4,6.2
					v51.5c1.8,0.6,3.1-0.2,3.1-2.1v-52.6C547.4,289.3,545.6,286.5,543.5,285.3z"/>
				<g>
					<g class="st34">
						<path class="st3" d="M474.2,271.5l46.9,27.1c0.7,0.4,1.3,0.2,1.3-0.5l0,0c0-0.7-0.6-1.6-1.3-2L474.2,269
							c-0.7-0.4-1.3-0.2-1.3,0.5l0,0C472.9,270.2,473.5,271.1,474.2,271.5z"/>
					</g>
					<g class="st34">
						<path class="st3" d="M474.2,278.7l46.9,27.1c0.7,0.4,1.3,0.2,1.3-0.5l0,0c0-0.7-0.6-1.6-1.3-2l-46.9-27.1
							c-0.7-0.4-1.3-0.2-1.3,0.5l0,0C472.9,277.4,473.5,278.3,474.2,278.7z"/>
					</g>
					<g class="st34">
						<path class="st35" d="M473.8,285.6l34.7,19.9c0.5,0.3,0.9,0.1,0.9-0.4v-0.7c0-0.5-0.4-1.1-0.9-1.4l-34.7-19.9
							c-0.5-0.3-0.9-0.1-0.9,0.4v0.7C472.9,284.7,473.3,285.3,473.8,285.6z"/>
					</g>
				</g>
			</g>
			<g>
				<path class="st47" d="M455.4,326.1v62.3c0,3.5-4.3,2.9-6.8-1.1l-7.4-11.6c-0.7-1.2-1.7-2.2-2.8-2.8l-82.9-47.4
					c-2.2-1.2-4-4-4-6.2v-52.6c0-2.2,1.8-2.9,4-1.7l95.8,54.8C453.6,321.2,455.4,323.9,455.4,326.1z"/>
				<path class="st48" d="M449.3,332.2v62.2c0,3.5-4.3,2.9-6.8-1.1l-7.4-11.6c-0.7-1.2-1.7-2.2-2.8-2.8l-82.9-47.4
					c-2.2-1.2-4-4-4-6.2v-52.6c0-2.2,1.8-2.9,4-1.7l95.8,54.8C447.5,327.3,449.3,330.1,449.3,332.2z"/>
				<path class="st33" d="M445.3,326l-95.8-54.8c-2.2-1.2-4-0.5-4,1.7v1.3c0.2,0.1,0.4,0.2,0.6,0.3l95.8,54.8c2.2,1.2,4,4,4,6.2
					v60.9c1.8,0.7,3.3,0.1,3.3-2v-62.2C449.3,330.1,447.5,327.3,445.3,326z"/>
				<g>
					<g class="st34">
						<path class="st3" d="M415.2,334.4l-46.4-26.5c-0.7-0.4-1.3-1.3-1.3-2v0c0-0.7,0.6-0.9,1.3-0.5l46.4,26.5
							c0.7,0.4,1.3,1.3,1.3,2l0,0C416.4,334.5,415.9,334.8,415.2,334.4z"/>
					</g>
					<g class="st34">
						<path class="st3" d="M415.2,341.5L368.8,315c-0.7-0.4-1.3-1.3-1.3-2l0,0c0-0.7,0.6-0.9,1.3-0.5l46.4,26.5
							c0.7,0.4,1.3,1.3,1.3,2l0,0C416.4,341.7,415.9,341.9,415.2,341.5z"/>
					</g>
					<g class="st39">
						<path class="st40" d="M415.5,348.9l-34.7-19.8c-0.5-0.3-0.9-0.9-0.9-1.4V327c0-0.5,0.4-0.7,0.9-0.4l34.7,19.8
							c0.5,0.3,0.9,0.9,0.9,1.4v0.7C416.4,349,416,349.2,415.5,348.9z"/>
					</g>
				</g>
			</g>
			<g>
				<path class="st41" d="M579.3,425.1l-107.6-57.4c-1.7-0.9-3.2-3.1-3.2-4.8v-38.6c0-1.7,1.4-2.4,3.2-1.5l107.6,57.4
					c1.7,0.9,3.2,3.1,3.2,4.8v38.6C582.5,425.4,581,426,579.3,425.1z"/>
				<path class="st33" d="M579.3,380.2l-107.6-57.4c-1.7-0.9-3.2-0.3-3.2,1.5v2.1l107.3,57.3c1.7,0.9,3.2,3.1,3.2,4.8v36.5l0.3,0.1
					c1.7,0.9,3.2,0.3,3.2-1.5V385C582.5,383.3,581,381.1,579.3,380.2z"/>
				<g>
					<path class="st42" d="M532.2,371l-37.6-20.1c-0.5-0.3-0.9-0.8-0.9-1.3l0,0c0-0.5,0.4-0.7,0.9-0.4l37.6,20.1
						c0.5,0.3,0.9,0.8,0.9,1.3l0,0C533,371,532.7,371.2,532.2,371z"/>
					<path class="st42" d="M532.2,376.8l-37.6-20.1c-0.5-0.3-0.9-0.8-0.9-1.3l0,0c0-0.5,0.4-0.7,0.9-0.4l37.6,20.1
						c0.5,0.3,0.9,0.8,0.9,1.3l0,0C533,376.9,532.7,377.1,532.2,376.8z"/>
					<path class="st42" d="M532.2,382.7l-37.6-20.1c-0.5-0.3-0.9-0.8-0.9-1.3l0,0c0-0.5,0.4-0.7,0.9-0.4l37.6,20.1
						c0.5,0.3,0.9,0.8,0.9,1.3l0,0C533,382.8,532.7,383,532.2,382.7z"/>
					<path class="st43" d="M514.3,379.1l-20-10.7c-0.3-0.2-0.6-0.6-0.6-1V367c0-0.3,0.3-0.5,0.6-0.3l20,10.7c0.3,0.2,0.6,0.6,0.6,1
						v0.5C515,379.1,514.7,379.3,514.3,379.1z"/>
				</g>
			</g>
			<g>
				<path class="st41" d="M415,274l-70.9-42c-1.7-1-3.2-3.3-3.2-5v-38.6c0-1.7,1.4-2.3,3.2-1.3l70.9,42c1.7,1,3.2,3.3,3.2,5v38.6
					C418.1,274.4,416.7,275,415,274z"/>
				<path class="st33" d="M415,229.1l-70.9-42c-1.6-0.9-2.9-0.5-3.1,0.8l69.5,41.2c1.7,1,3.2,3.3,3.2,5v38.6c0,0.2,0,0.3,0,0.5
					l1.4,0.8c1.7,1,3.2,0.5,3.2-1.3v-38.6C418.1,232.4,416.7,230.1,415,229.1z"/>
				<g>
					<path class="st44" d="M398.4,234.4l-37.6-22.2c-0.5-0.3-0.9-0.9-0.9-1.4l0,0c0-0.5,0.4-0.6,0.9-0.4l37.6,22.2
						c0.5,0.3,0.9,0.9,0.9,1.4l0,0C399.3,234.5,398.9,234.6,398.4,234.4z"/>
					<path class="st44" d="M398.4,240.2L360.9,218c-0.5-0.3-0.9-0.9-0.9-1.4l0,0c0-0.5,0.4-0.6,0.9-0.4l37.6,22.2
						c0.5,0.3,0.9,0.9,0.9,1.4l0,0C399.3,240.4,398.9,240.5,398.4,240.2z"/>
					<path class="st44" d="M398.4,246.1l-37.6-22.2c-0.5-0.3-0.9-0.9-0.9-1.4l0,0c0-0.5,0.4-0.6,0.9-0.4l37.6,22.2
						c0.5,0.3,0.9,0.9,0.9,1.4v0C399.3,246.3,398.9,246.4,398.4,246.1z"/>
					<path class="st45" d="M380.6,241.5l-20-11.8c-0.3-0.2-0.6-0.7-0.6-1v-0.5c0-0.3,0.3-0.5,0.6-0.3l20,11.8c0.3,0.2,0.6,0.7,0.6,1
						v0.5C381.2,241.5,381,241.7,380.6,241.5z"/>
				</g>
			</g>
		</g>
	</g>
</g>
</svg>
