<?xml version="1.0" encoding="utf-8"?>
<!-- Generator: Adobe Illustrator 27.5.0, SVG Export Plug-In . SVG Version: 6.00 Build 0)  -->
<svg version="1.1" id="Layer_1" xmlns="http://www.w3.org/2000/svg" xmlns:xlink="http://www.w3.org/1999/xlink" x="0px" y="0px"
	 viewBox="0 0 588 500" style="enable-background:new 0 0 588 500;" xml:space="preserve">
<style type="text/css">
	.st0{fill:url(#SVGID_1_);}
	.st1{fill:#181C31;}
	.st2{fill:#292E45;}
	.st3{fill:#77F28A;}
	.st4{fill:#EF5C00;}
	.st5{fill:#FFDB26;}
	.st6{opacity:0.61;fill:#FFFFFF;enable-background:new    ;}
	.st7{opacity:0.22;}
	.st8{fill:#B3B3B3;}
	.st9{fill:#7EABF1;}
	.st10{fill:#264CB5;}
	.st11{opacity:0.25;fill:#7EABF1;}
	.st12{fill:#24305B;}
	.st13{opacity:0.25;}
	.st14{fill:#58595B;}
	.st15{fill:#F1F2F2;}
	.st16{font-family:'Metropolis-Regular';}
	.st17{font-size:3.8929px;}
	.st18{fill:#C4222E;}
	.st19{opacity:0.31;fill:#FFFFFF;stroke:#2C49B8;stroke-miterlimit:10;enable-background:new    ;}
	.st20{display:none;fill:#2C49B8;enable-background:new    ;}
	.st21{font-family:'ArialMT';}
	.st22{font-size:36.1559px;}
	.st23{fill:none;stroke:#E2E2E2;stroke-miterlimit:10;}
	.st24{display:none;fill:url(#SVGID_00000076561625208596493060000006431349478517554579_);}
	.st25{opacity:0.25;fill:#005DCC;}
	.st26{opacity:0.82;fill:#7EABF1;}
	.st27{opacity:0.63;}
	.st28{fill:#FFFFFF;}
	.st29{fill:#113468;}
	.st30{display:none;}
	.st31{display:inline;opacity:0.25;fill:#4368B1;}
	.st32{display:inline;opacity:0.85;fill:#1839B2;}
	.st33{display:inline;opacity:0.25;}
	.st34{display:inline;}
	.st35{opacity:0.5;}
	.st36{fill:#121272;}
	.st37{opacity:0.81;fill:#375BDD;}
	.st38{fill:#375BDD;}
	.st39{opacity:0.81;fill:#4862AC;}
	.st40{fill:#4862AC;}
</style>
<g id="Layer_1_00000152975117713777255330000010459904941980823716_">
	
		<linearGradient id="SVGID_1_" gradientUnits="userSpaceOnUse" x1="-1778" y1="-78" x2="-1778" y2="422" gradientTransform="matrix(-1 0 0 -1 -1484 422)">
		<stop  offset="0" style="stop-color:#252A42;stop-opacity:0"/>
		<stop  offset="1" style="stop-color:#24283E"/>
	</linearGradient>
	<path class="st0" d="M580,500H8c-4.4,0-8-3.6-8-8V8c0-4.4,3.6-8,8-8h572c4.4,0,8,3.6,8,8v484C588,496.4,584.4,500,580,500z"/>
	<path class="st1" d="M127.3,58.3h340.4c1.3,0,2.6,0.5,3.5,1.5c0.9,0.9,1.5,2.2,1.5,3.5v20.2H122.3V63.3c0-1.3,0.5-2.6,1.5-3.5
		C124.7,58.9,126,58.3,127.3,58.3L127.3,58.3z"/>
	<g>
		<path class="st2" d="M122,83h350v308.2c0,1.2-0.5,2.4-1.5,3.3c-0.9,0.9-2.2,1.3-3.5,1.3H127c-1.3,0-2.6-0.5-3.5-1.3
			s-1.5-2-1.5-3.3V83z"/>
	</g>
	<path class="st3" d="M161.1,73.7c1.4,0,2.5-1.1,2.5-2.5s-1.1-2.5-2.5-2.5s-2.5,1.1-2.5,2.5C158.7,72.6,159.8,73.7,161.1,73.7z"/>
	<path class="st4" d="M143.2,73.7c1.4,0,2.5-1.1,2.5-2.5s-1.1-2.5-2.5-2.5s-2.5,1.1-2.5,2.5S141.8,73.7,143.2,73.7z"/>
	<path class="st5" d="M152,73.7c1.4,0,2.5-1.1,2.5-2.5s-1.1-2.5-2.5-2.5s-2.5,1.1-2.5,2.5S150.6,73.7,152,73.7z"/>
	<path class="st6" d="M421.3,120.9c0.9,0,1.7-0.8,1.7-1.7c0-0.9-0.8-1.7-1.7-1.7c-0.9,0-1.7,0.8-1.7,1.7
		C419.6,120.1,420.4,120.9,421.3,120.9z"/>
	<path class="st6" d="M426.4,120.9c0.9,0,1.7-0.8,1.7-1.7c0-0.9-0.8-1.7-1.7-1.7c-0.9,0-1.7,0.8-1.7,1.7
		C424.7,120.1,425.5,120.9,426.4,120.9z"/>
	<path class="st6" d="M431.5,120.9c0.9,0,1.7-0.8,1.7-1.7c0-0.9-0.8-1.7-1.7-1.7c-0.9,0-1.7,0.8-1.7,1.7S430.5,120.9,431.5,120.9z"
		/>
</g>
<g id="Layer_2_00000085233235320349377100000018059288258693036708_">
</g>
<g class="st7">
	<g>
		<path class="st8" d="M245.7,338.9h-86.4c-0.8,0-1.4-0.6-1.4-1.4V334c0-0.8,0.6-1.4,1.4-1.4h86.4c0.8,0,1.4,0.6,1.4,1.4v3.5
			C247.1,338.2,246.5,338.9,245.7,338.9z"/>
		<path class="st8" d="M213.8,348.8h-54.5c-0.8,0-1.4-0.6-1.4-1.4v-3.5c0-0.8,0.6-1.4,1.4-1.4h54.5c0.8,0,1.4,0.6,1.4,1.4v3.5
			C215.3,348.2,214.6,348.8,213.8,348.8z"/>
	</g>
	<g>
		<path class="st9" d="M442.8,221.4h-44.4c-3.5,0-6.3-2.8-6.3-6.3v-25.8c0-3.5,2.8-6.3,6.3-6.3h44.4c3.5,0,6.3,2.8,6.3,6.3v25.8
			C449.1,218.6,446.3,221.4,442.8,221.4z"/>
		<g>
			
				<ellipse transform="matrix(0.8896 -0.4567 0.4567 0.8896 -45.9437 214.4209)" class="st10" cx="420.6" cy="202.3" rx="12.7" ry="12.7"/>
			<g>
				<path class="st9" d="M415.9,202.3v-5.5c0-1,1.1-1.7,2-1.2l4.8,2.8l4.8,2.8c0.9,0.5,0.9,1.8,0,2.3l-4.8,2.8l-4.8,2.8
					c-0.9,0.5-2-0.1-2-1.2V202.3z"/>
			</g>
		</g>
		<path class="st8" d="M447,228.8h-52.7c-0.8,0-1.4-0.6-1.4-1.4V225c0-0.8,0.6-1.4,1.4-1.4H447c0.8,0,1.4,0.6,1.4,1.4v2.3
			C448.5,228.1,447.8,228.8,447,228.8z"/>
		<path class="st8" d="M420.8,233.8h-26.5c-0.8,0-1.4-0.6-1.4-1.4v-0.7c0-0.8,0.6-1.4,1.4-1.4h26.5c0.8,0,1.4,0.6,1.4,1.4v0.7
			C422.2,233.2,421.6,233.8,420.8,233.8z"/>
	</g>
	<g>
		<path class="st9" d="M442.8,284.2h-44.4c-3.5,0-6.3-2.8-6.3-6.3v-25.8c0-3.5,2.8-6.3,6.3-6.3h44.4c3.5,0,6.3,2.8,6.3,6.3V278
			C449.1,281.4,446.3,284.2,442.8,284.2z"/>
		<g>
			
				<ellipse transform="matrix(0.8362 -0.5484 0.5484 0.8362 -76.4845 274.0862)" class="st10" cx="420.6" cy="265.1" rx="12.7" ry="12.7"/>
			<g>
				<path class="st9" d="M415.9,265.1v-5.5c0-1,1.1-1.7,2-1.2l4.8,2.8l4.8,2.8c0.9,0.5,0.9,1.8,0,2.3l-4.8,2.8l-4.8,2.8
					c-0.9,0.5-2-0.1-2-1.2V265.1z"/>
			</g>
		</g>
		<path class="st8" d="M447,291.6h-52.7c-0.8,0-1.4-0.6-1.4-1.4v-2.3c0-0.8,0.6-1.4,1.4-1.4H447c0.8,0,1.4,0.6,1.4,1.4v2.3
			C448.5,290.9,447.8,291.6,447,291.6z"/>
		<path class="st8" d="M420.8,296.7h-26.5c-0.8,0-1.4-0.6-1.4-1.4v-0.7c0-0.8,0.6-1.4,1.4-1.4h26.5c0.8,0,1.4,0.6,1.4,1.4v0.7
			C422.2,296,421.6,296.7,420.8,296.7z"/>
	</g>
</g>
<path class="st11" d="M360.7,325.3H160.3c-3.5,0-6.3-2.8-6.3-6.3V188.4c0-3.5,2.8-6.3,6.3-6.3h200.4c3.5,0,6.3,2.8,6.3,6.3V319
	C366.9,322.5,364.1,325.3,360.7,325.3z"/>
<g>
	
		<ellipse transform="matrix(0.8956 -0.4448 0.4448 0.8956 -83.6287 141.8668)" class="st12" cx="260.5" cy="249.1" rx="23.9" ry="23.9"/>
	<g class="st13">
		<path class="st9" d="M251.7,249.1v-10.4c0-2,2.1-3.2,3.8-2.2l9,5.2l9,5.2c1.7,1,1.7,3.4,0,4.4l-9,5.2l-9,5.2
			c-1.7,1-3.8-0.2-3.8-2.2V249.1z"/>
	</g>
</g>
<g>
	<path class="st14" d="M362.1,312.8H159.8c-0.3,0-0.5-0.2-0.5-0.5l0,0c0-0.3,0.2-0.5,0.5-0.5h202.4c0.3,0,0.5,0.2,0.5,0.5l0,0
		C362.7,312.6,362.4,312.8,362.1,312.8z"/>
	<text transform="matrix(1 0 0 1 196.6508 319.4415)" class="st15 st16 st17">0:00</text>
	<path class="st15" d="M344.5,319.9h-1.9c-0.2,0-0.3-0.1-0.3-0.3v-1.2c0-0.2,0.1-0.3,0.3-0.3h1.9c0.2,0,0.3,0.1,0.3,0.3v1.2
		C344.8,319.7,344.7,319.9,344.5,319.9z"/>
	<g>
		<path class="st15" d="M335.4,316.5c0.3,0,0.5,0.2,0.5,0.5v2.7c0,0.3-0.2,0.5-0.5,0.5h-4.1c-0.3,0-0.5-0.2-0.5-0.5V317
			c0-0.3,0.2-0.5,0.5-0.5H335.4 M335.4,315.7h-4.1c-0.7,0-1.3,0.6-1.3,1.3v2.7c0,0.7,0.6,1.3,1.3,1.3h4.1c0.7,0,1.3-0.6,1.3-1.3V317
			C336.6,316.3,336.1,315.7,335.4,315.7L335.4,315.7z"/>
	</g>
	<g>
		<path class="st15" d="M346.4,316.5c0.3,0,0.5,0.2,0.5,0.5v2.7c0,0.3-0.2,0.5-0.5,0.5h-4.1c-0.3,0-0.5-0.2-0.5-0.5V317
			c0-0.3,0.2-0.5,0.5-0.5H346.4 M346.4,315.7h-4.1c-0.7,0-1.3,0.6-1.3,1.3v2.7c0,0.7,0.6,1.3,1.3,1.3h4.1c0.7,0,1.3-0.6,1.3-1.3V317
			C347.6,316.3,347.1,315.7,346.4,315.7L346.4,315.7z"/>
	</g>
	<g>
		<path class="st15" d="M353.2,318.2v-1.6c0-0.2,0.2-0.4,0.4-0.4h1.3v-0.6h-1.3c-0.5,0-0.9,0.4-0.9,0.9v1.6H353.2z"/>
		<path class="st15" d="M355.6,316.3h1.3c0.2,0,0.4,0.2,0.4,0.4v1.6h0.6v-1.6c0-0.5-0.4-0.9-0.9-0.9h-1.3V316.3z"/>
		<path class="st15" d="M357.3,318.9v1c0,0.2-0.2,0.4-0.4,0.4h-1.3v0.6h1.3c0.5,0,0.9-0.4,0.9-0.9v-1H357.3z"/>
		<path class="st15" d="M354.9,320.4h-1.3c-0.2,0-0.4-0.2-0.4-0.4v-1h-0.6v1c0,0.5,0.4,0.9,0.9,0.9h1.3V320.4z"/>
	</g>
	<g>
		<g>
			<path class="st15" d="M177,318.3v-1.4c0-0.1,0.1-0.1,0.1-0.1l1.2,0.7l1.2,0.7c0.1,0,0.1,0.1,0,0.2l-1.2,0.7l-1.2,0.7
				c-0.1,0-0.1,0-0.1-0.1V318.3z"/>
			<path class="st15" d="M187.8,317.3h-1c-0.1,0-0.2,0.1-0.2,0.2v0.9v0.9c0,0.1,0.1,0.2,0.2,0.2h1l1.5,1.5v-2.6v-2.6L187.8,317.3z"
				/>
			<path class="st15" d="M180.4,319.9L180.4,319.9c-0.1,0-0.3-0.1-0.3-0.3V317c0-0.1,0.1-0.3,0.3-0.3l0,0c0.1,0,0.3,0.1,0.3,0.3v2.7
				C180.7,319.8,180.6,319.9,180.4,319.9z"/>
		</g>
		<path class="st15" d="M190,316.7v0.4c0.4,0.2,0.7,0.7,0.7,1.2c0,0.5-0.3,1-0.7,1.2v0.4c0.7-0.3,1.1-0.9,1.1-1.6
			S190.6,317,190,316.7z"/>
		<g>
			<path class="st15" d="M190,315.5v0.7c1,0.3,1.6,1.1,1.6,2.2c0,1-0.7,1.9-1.6,2.2v0.7c1.3-0.3,2.3-1.5,2.3-2.9
				C192.3,316.9,191.3,315.8,190,315.5z"/>
		</g>
		<path class="st15" d="M165,320.8L165,320.8c-0.4,0-0.7-0.3-0.7-0.7v-3.5c0-0.4,0.3-0.7,0.7-0.7l0,0c0.4,0,0.7,0.3,0.7,0.7v3.5
			C165.6,320.5,165.3,320.8,165,320.8z"/>
		<path class="st15" d="M168,320.8L168,320.8c-0.4,0-0.7-0.3-0.7-0.7v-3.5c0-0.4,0.3-0.7,0.7-0.7l0,0c0.4,0,0.7,0.3,0.7,0.7v3.5
			C168.7,320.5,168.4,320.8,168,320.8z"/>
	</g>
	<path class="st18" d="M163.1,312c0,1.3-1.1,2.4-2.4,2.4s-2.4-1.1-2.4-2.4c0-1.3,1.1-2.4,2.4-2.4S163.1,310.7,163.1,312z"/>
	<g>
		<path class="st15" d="M320.6,318.8c0-0.2,0-0.5,0-0.7c0.2-0.1,0.5-0.2,0.7-0.3c0.1,0,0.1-0.1,0.2-0.2c0.2-0.2,0-0.4,0-0.5
			c-0.2-0.5-0.2-0.5,0.2-0.9c0.1,0,0.2-0.1,0.2,0c0.2,0.1,0.4,0.1,0.6,0.2c0.2,0.1,0.5-0.1,0.5-0.2c0.1-0.2,0.2-0.5,0.3-0.7
			c0.2,0,0.4,0,0.7,0c0.1,0.2,0.2,0.4,0.3,0.6c0.1,0.2,0.2,0.2,0.3,0.3c0.2,0.1,0.3,0,0.5-0.1c0.5-0.2,0.5-0.2,0.9,0.2
			c0.1,0.1,0.1,0.2,0.1,0.3c-0.1,0.2-0.2,0.4-0.2,0.5c-0.1,0.2,0,0.5,0.2,0.5c0.2,0.1,0.4,0.2,0.6,0.2c0.1,0,0.1,0.1,0.1,0.2
			c0,0.5,0,0.5-0.5,0.8c0,0-0.1,0-0.1,0.1c-0.3,0.1-0.4,0.4-0.3,0.7c0.1,0.2,0.1,0.3,0.2,0.5c0,0.1,0,0.1,0,0.2
			c-0.4,0.4-0.4,0.4-0.9,0.2c0,0-0.1,0-0.1,0c-0.3-0.1-0.6-0.1-0.7,0.3c-0.1,0.2-0.1,0.3-0.2,0.5c0,0.1-0.1,0.1-0.2,0.1
			c-0.7,0-0.5,0.1-0.8-0.5c0-0.1,0-0.1-0.1-0.2c-0.1-0.1-0.1-0.2-0.2-0.2c-0.2-0.2-0.4,0-0.5,0.1c-0.5,0.2-0.5,0.2-0.9-0.2
			c-0.1-0.1-0.1-0.2-0.1-0.2c0.1-0.2,0.2-0.4,0.2-0.6c0.1-0.2-0.1-0.4-0.2-0.5C321.1,319,320.9,318.9,320.6,318.8z M324.7,318.5
			c0-0.5-0.4-1-1-1c-0.5,0-1,0.4-1,0.9c0,0.5,0.4,1,1,1C324.2,319.4,324.7,319,324.7,318.5z"/>
	</g>
</g>
<g id="magnifier">
	<g>
		<path class="st19" d="M386.7,140.9l-193.1,0.9c-10.3,0-18.7-8.4-18.7-18.7l0,0c0-10.3,8.4-18.7,18.7-18.7l193.1-0.9
			c10.3,0,18.7,8.4,18.7,18.7l0,0C405.4,132.5,397,140.9,386.7,140.9z"/>
		<text transform="matrix(1 0 0 1 193.7067 134.0056)" class="st20 st21 st22">www</text>
		<g>
			<circle class="st23" cx="382" cy="121.3" r="8"/>
			<line class="st23" x1="387.2" y1="127.4" x2="392" y2="132.3"/>
		</g>
	</g>
</g>
<g>
	
		<linearGradient id="SVGID_00000069364701099227003460000000107637831941980085_" gradientUnits="userSpaceOnUse" x1="119.3784" y1="531.7947" x2="308.0258" y2="289.7254">
		<stop  offset="0" style="stop-color:#425EAB"/>
		<stop  offset="0.9944" style="stop-color:#7FBDFF;stop-opacity:0"/>
	</linearGradient>
	<path style="display:none;fill:url(#SVGID_00000069364701099227003460000000107637831941980085_);" d="M274.7,397.3l-105.5-62.6
		c-6.7-4-6.6-13.7,0.2-17.5l104.9-58.8c3.1-1.7,6.8-1.7,9.9,0l105.5,59.3c6.8,3.8,6.9,13.5,0.2,17.5L285,397.3
		C281.8,399.2,277.9,399.2,274.7,397.3z"/>
	<g>
		<g>
			<path class="st25" d="M278.4,167.3v62.3c0,3.5,4.3,7.7,6.8,6.7l7.4-3.1c0.7-0.3,1.7-0.2,2.8,0.4l83.3,48c2.2,1.3,4,0.5,4-1.7
				v-52.6c0-2.2-1.8-5-4-6.2l-96.3-55.4C280.2,164.4,278.4,165.1,278.4,167.3z"/>
			<path class="st26" d="M271,171.3v62.3c0,3.5,4.3,7.7,6.8,6.7l7.4-3.1c0.7-0.3,1.7-0.2,2.8,0.4l83.3,48c2.2,1.3,4,0.5,4-1.7v-52.6
				c0-2.2-1.8-5-4-6.2L275,169.7C272.8,168.4,271,169.2,271,171.3z"/>
			<path class="st13" d="M371.3,225.1L275,169.7c-2.2-1.3-4-0.5-4,1.7v1c0.3,0.1,0.6,0.2,0.8,0.4l96.3,55.4c2.2,1.3,4,4,4,6.2v51.5
				c1.8,0.6,3.1-0.2,3.1-2.1v-52.6C375.3,229.1,373.5,226.3,371.3,225.1z"/>
			<g>
				<g class="st27">
					<path class="st28" d="M302,211.3l46.9,27.1c0.7,0.4,1.3,0.2,1.3-0.5l0,0c0-0.7-0.6-1.6-1.3-2L302,208.8
						c-0.7-0.4-1.3-0.2-1.3,0.5l0,0C300.7,210.1,301.3,210.9,302,211.3z"/>
				</g>
				<g class="st27">
					<path class="st28" d="M302,218.5l46.9,27.1c0.7,0.4,1.3,0.2,1.3-0.5l0,0c0-0.7-0.6-1.6-1.3-2L302,216c-0.7-0.4-1.3-0.2-1.3,0.5
						l0,0C300.7,217.2,301.3,218.1,302,218.5z"/>
				</g>
				<g class="st27">
					<path class="st29" d="M301.6,225.5l34.7,19.9c0.5,0.3,0.9,0.1,0.9-0.4v-0.7c0-0.5-0.4-1.1-0.9-1.4l-34.7-19.9
						c-0.5-0.3-0.9-0.1-0.9,0.4v0.7C300.7,224.5,301.1,225.2,301.6,225.5z"/>
				</g>
			</g>
		</g>
		<g class="st30">
			<path class="st31" d="M282.3,248.5v62.3c0,3.5-4.3,2.9-6.8-1.1l-7.4-11.6c-0.7-1.2-1.7-2.2-2.8-2.8L182.5,248c-2.2-1.2-4-4-4-6.2
				v-52.6c0-2.2,1.8-2.9,4-1.7l95.8,54.8C280.5,243.5,282.3,246.3,282.3,248.5z"/>
			<path class="st32" d="M276.2,254.6v62.3c0,3.5-4.3,2.9-6.8-1.1l-7.4-11.6c-0.7-1.2-1.7-2.2-2.8-2.8l-82.9-47.4
				c-2.2-1.2-4-4-4-6.2v-52.6c0-2.2,1.8-2.9,4-1.7l95.8,54.8C274.4,249.7,276.2,252.5,276.2,254.6z"/>
			<path class="st33" d="M272.2,248.4l-95.8-54.8c-2.2-1.2-4-0.5-4,1.7v1.3c0.2,0.1,0.4,0.2,0.6,0.3l95.8,54.8c2.2,1.2,4,4,4,6.2
				v60.9c1.8,0.7,3.3,0.1,3.3-2v-62.3C276.2,252.5,274.4,249.7,272.2,248.4z"/>
			<g class="st34">
				<g class="st27">
					<path class="st28" d="M242.1,256.8l-46.4-26.5c-0.7-0.4-1.3-1.3-1.3-2v0c0-0.7,0.6-0.9,1.3-0.5l46.4,26.5
						c0.7,0.4,1.3,1.3,1.3,2l0,0C243.3,256.9,242.8,257.2,242.1,256.8z"/>
				</g>
				<g class="st27">
					<path class="st28" d="M242.1,263.9l-46.4-26.5c-0.7-0.4-1.3-1.3-1.3-2l0,0c0-0.7,0.6-0.9,1.3-0.5l46.4,26.5
						c0.7,0.4,1.3,1.3,1.3,2l0,0C243.3,264.1,242.8,264.3,242.1,263.9z"/>
				</g>
				<g class="st35">
					<path class="st36" d="M242.4,271.3l-34.7-19.8c-0.5-0.3-0.9-0.9-0.9-1.4v-0.7c0-0.5,0.4-0.7,0.9-0.4l34.7,19.8
						c0.5,0.3,0.9,0.9,0.9,1.4v0.7C243.3,271.4,242.9,271.6,242.4,271.3z"/>
				</g>
			</g>
		</g>
		<g>
			<path class="st26" d="M418.9,373.6l-107.6-57.4c-1.7-0.9-3.2-3.1-3.2-4.8v-38.6c0-1.7,1.4-2.4,3.2-1.5l107.6,57.4
				c1.7,0.9,3.2,3.1,3.2,4.8v38.6C422.1,373.9,420.7,374.6,418.9,373.6z"/>
			<path class="st13" d="M418.9,328.7l-107.6-57.4c-1.7-0.9-3.2-0.3-3.2,1.5v2.1l107.3,57.3c1.7,0.9,3.2,3.1,3.2,4.8v36.5l0.3,0.1
				c1.7,0.9,3.2,0.3,3.2-1.5v-38.6C422.1,331.8,420.7,329.7,418.9,328.7z"/>
			<g>
				<path class="st37" d="M371.8,319.5l-37.6-20.1c-0.5-0.3-0.9-0.8-0.9-1.3l0,0c0-0.5,0.4-0.7,0.9-0.4l37.6,20.1
					c0.5,0.3,0.9,0.8,0.9,1.3l0,0C372.7,319.6,372.3,319.8,371.8,319.5z"/>
				<path class="st37" d="M371.8,325.4l-37.6-20.1c-0.5-0.3-0.9-0.8-0.9-1.3l0,0c0-0.5,0.4-0.7,0.9-0.4l37.6,20.1
					c0.5,0.3,0.9,0.8,0.9,1.3l0,0C372.7,325.5,372.3,325.6,371.8,325.4z"/>
				<path class="st37" d="M371.8,331.3l-37.6-20.1c-0.5-0.3-0.9-0.8-0.9-1.3l0,0c0-0.5,0.4-0.7,0.9-0.4l37.6,20.1
					c0.5,0.3,0.9,0.8,0.9,1.3l0,0C372.7,331.3,372.3,331.5,371.8,331.3z"/>
				<path class="st38" d="M354,327.6L334,317c-0.3-0.2-0.6-0.6-0.6-1v-0.5c0-0.3,0.3-0.5,0.6-0.3l20,10.7c0.3,0.2,0.6,0.6,0.6,1v0.5
					C354.6,327.7,354.3,327.8,354,327.6z"/>
			</g>
		</g>
		<g>
			<path class="st29" d="M242.8,213.8l-70.9-42c-1.7-1-3.2-3.3-3.2-5v-38.6c0-1.7,1.4-2.3,3.2-1.3l70.9,42c1.7,1,3.2,3.3,3.2,5v38.6
				C246,214.2,244.5,214.8,242.8,213.8z"/>
			<path class="st13" d="M242.8,168.9l-70.9-42c-1.6-0.9-2.9-0.5-3.1,0.8l69.5,41.2c1.7,1,3.2,3.3,3.2,5v38.6c0,0.2,0,0.3,0,0.5
				l1.4,0.8c1.7,1,3.2,0.5,3.2-1.3v-38.6C246,172.2,244.5,169.9,242.8,168.9z"/>
			<g>
				<path class="st39" d="M226.3,174.2L188.7,152c-0.5-0.3-0.9-0.9-0.9-1.4l0,0c0-0.5,0.4-0.6,0.9-0.4l37.6,22.2
					c0.5,0.3,0.9,0.9,0.9,1.4l0,0C227.1,174.3,226.8,174.5,226.3,174.2z"/>
				<path class="st39" d="M226.3,180.1l-37.6-22.2c-0.5-0.3-0.9-0.9-0.9-1.4l0,0c0-0.5,0.4-0.6,0.9-0.4l37.6,22.2
					c0.5,0.3,0.9,0.9,0.9,1.4l0,0C227.1,180.2,226.8,180.4,226.3,180.1z"/>
				<path class="st39" d="M226.3,186l-37.6-22.2c-0.5-0.3-0.9-0.9-0.9-1.4l0,0c0-0.5,0.4-0.6,0.9-0.4l37.6,22.2
					c0.5,0.3,0.9,0.9,0.9,1.4v0C227.1,186.1,226.8,186.2,226.3,186z"/>
				<path class="st40" d="M208.4,181.3l-20-11.8c-0.3-0.2-0.6-0.7-0.6-1V168c0-0.3,0.3-0.5,0.6-0.3l20,11.8c0.3,0.2,0.6,0.7,0.6,1
					v0.5C209.1,181.4,208.8,181.5,208.4,181.3z"/>
			</g>
		</g>
	</g>
</g>
</svg>
