<?xml version="1.0" encoding="utf-8"?>
<!-- Generator: Adobe Illustrator 27.5.0, SVG Export Plug-In . SVG Version: 6.00 Build 0)  -->
<svg version="1.1" xmlns="http://www.w3.org/2000/svg" xmlns:xlink="http://www.w3.org/1999/xlink" x="0px" y="0px"
	 viewBox="0 0 588 500" style="enable-background:new 0 0 588 500;" xml:space="preserve">
<style type="text/css">
	.st0{fill:url(#SVGID_1_);}
	.st1{fill:#181C31;}
	.st2{fill:#292E45;}
	.st3{fill:#77F28A;}
	.st4{fill:#EF5C00;}
	.st5{fill:#FFDB26;}
	.st6{opacity:0.61;fill:#FFFFFF;enable-background:new    ;}
	.st7{display:none;}
	.st8{display:inline;}
	.st9{fill:url(#SVGID_00000155124211691704750850000007829684921689579690_);}
	.st10{opacity:0.25;fill:#005DCC;enable-background:new    ;}
	.st11{opacity:0.81;fill:#2546AF;enable-background:new    ;}
	.st12{opacity:0.25;enable-background:new    ;}
	.st13{opacity:0.63;}
	.st14{fill:#FFFFFF;}
	.st15{fill:#113468;}
	.st16{opacity:0.25;fill:#4368B1;enable-background:new    ;}
	.st17{opacity:0.85;fill:#1839B2;enable-background:new    ;}
	.st18{opacity:0.5;}
	.st19{fill:#121272;}
	.st20{opacity:0.82;fill:#7EABF1;enable-background:new    ;}
	.st21{opacity:0.81;fill:#375BDD;enable-background:new    ;}
	.st22{fill:#375BDD;}
	.st23{opacity:0.81;fill:#4862AC;enable-background:new    ;}
	.st24{fill:#4862AC;}
	.st25{opacity:0.18;fill:#FFFFFF;stroke:#2C49B8;stroke-miterlimit:10;enable-background:new    ;}
	.st26{display:none;fill:#2C49B8;enable-background:new    ;}
	.st27{font-family:'ArialMT';}
	.st28{font-size:36.1559px;}
	.st29{fill:none;stroke:#E2E2E2;stroke-miterlimit:10;}
	.st30{fill:url(#SVGID_00000031898617400294135840000001884017715387048114_);}
	.st31{fill:#007CFF;}
	.st32{opacity:0.6;fill:#FFFFFF;enable-background:new    ;}
	.st33{fill:#398DEA;}
	.st34{opacity:0.3;fill:#FFFFFF;enable-background:new    ;}
	.st35{opacity:0.1;enable-background:new    ;}
	.st36{opacity:0.8;fill:#FFFFFF;enable-background:new    ;}
	.st37{opacity:0.9;fill:#FFFFFF;enable-background:new    ;}
	.st38{fill:#1839B2;enable-background:new    ;}
	.st39{opacity:0.78;}
	.st40{opacity:0.6;}
	.st41{fill:#7EABF1;}
	.st42{opacity:0.81;}
	.st43{opacity:0.82;}
</style>
<g id="Layer_1">
	<g id="Layer_1_00000152975117713777255330000010459904941980823716_">
		
			<linearGradient id="SVGID_1_" gradientUnits="userSpaceOnUse" x1="-1778" y1="-78" x2="-1778" y2="422" gradientTransform="matrix(-1 0 0 -1 -1484 422)">
			<stop  offset="0" style="stop-color:#252A42;stop-opacity:0"/>
			<stop  offset="1" style="stop-color:#24283E"/>
		</linearGradient>
		<path class="st0" d="M580,500H8c-4.4,0-8-3.6-8-8V8c0-4.4,3.6-8,8-8h572c4.4,0,8,3.6,8,8v484C588,496.4,584.4,500,580,500z"/>
		<path class="st1" d="M127.3,58.3h340.4c1.3,0,2.6,0.5,3.5,1.5c0.9,0.9,1.5,2.2,1.5,3.5v20.2H122.3V63.3c0-1.3,0.5-2.6,1.5-3.5
			C124.7,58.9,126,58.3,127.3,58.3L127.3,58.3z"/>
		<g>
			<path class="st2" d="M122,83h350v322.2c0,1.3-0.5,2.5-1.5,3.4c-0.9,0.9-2.2,1.4-3.5,1.4H127c-1.3,0-2.6-0.5-3.5-1.4
				s-1.5-2.1-1.5-3.4V83z"/>
		</g>
		<path class="st3" d="M161.1,73.7c1.4,0,2.5-1.1,2.5-2.5s-1.1-2.5-2.5-2.5s-2.5,1.1-2.5,2.5C158.7,72.6,159.8,73.7,161.1,73.7z"/>
		<path class="st4" d="M143.2,73.7c1.4,0,2.5-1.1,2.5-2.5s-1.1-2.5-2.5-2.5s-2.5,1.1-2.5,2.5S141.8,73.7,143.2,73.7z"/>
		<path class="st5" d="M152,73.7c1.4,0,2.5-1.1,2.5-2.5s-1.1-2.5-2.5-2.5s-2.5,1.1-2.5,2.5S150.6,73.7,152,73.7z"/>
		<path class="st6" d="M421.3,120.9c0.9,0,1.7-0.8,1.7-1.7c0-0.9-0.8-1.7-1.7-1.7c-0.9,0-1.7,0.8-1.7,1.7
			C419.6,120.1,420.4,120.9,421.3,120.9z"/>
		<path class="st6" d="M426.4,120.9c0.9,0,1.7-0.8,1.7-1.7c0-0.9-0.8-1.7-1.7-1.7c-0.9,0-1.7,0.8-1.7,1.7
			C424.7,120.1,425.5,120.9,426.4,120.9z"/>
		<path class="st6" d="M431.5,120.9c0.9,0,1.7-0.8,1.7-1.7c0-0.9-0.8-1.7-1.7-1.7c-0.9,0-1.7,0.8-1.7,1.7S430.5,120.9,431.5,120.9z"
			/>
	</g>
	<g id="Layer_2_00000085233235320349377100000018059288258693036708_">
	</g>
	<g id="Layer_3" class="st7">
		<g class="st8">
			
				<linearGradient id="SVGID_00000074406498775348685550000005554842652421319858_" gradientUnits="userSpaceOnUse" x1="26.1583" y1="-31.4005" x2="214.8057" y2="210.6687" gradientTransform="matrix(1 0 0 -1 0 502)">
				<stop  offset="0" style="stop-color:#7EABF1;stop-opacity:0.82"/>
				<stop  offset="1" style="stop-color:#558ECB;stop-opacity:0"/>
			</linearGradient>
			<path style="fill:url(#SVGID_00000074406498775348685550000005554842652421319858_);" d="M181.4,398.9L76,336.3
				c-6.7-4-6.6-13.7,0.2-17.5L181.1,260c3.1-1.7,6.8-1.7,9.9,0l105.5,59.3c6.8,3.8,6.9,13.5,0.2,17.5l-104.9,62.1
				C188.6,400.7,184.6,400.7,181.4,398.9z"/>
			<g>
				<g>
					<path class="st10" d="M196,160.2v62.3c0,3.5,4.3,7.7,6.8,6.7l7.4-3.1c0.7-0.3,1.7-0.2,2.8,0.4l83.3,48c2.2,1.3,4,0.5,4-1.7
						v-52.6c0-2.2-1.8-5-4-6.2L200,158.5C197.8,157.2,196,158,196,160.2z"/>
					<path class="st11" d="M188.6,164.2v62.3c0,3.5,4.3,7.7,6.8,6.7l7.4-3.1c0.7-0.3,1.7-0.2,2.8,0.4l83.3,48c2.2,1.3,4,0.5,4-1.7
						v-52.6c0-2.2-1.8-5-4-6.2l-96.3-55.4C190.4,161.3,188.6,162,188.6,164.2z"/>
					<path class="st12" d="M288.9,218l-96.3-55.4c-2.2-1.3-4-0.5-4,1.7v1c0.3,0.1,0.6,0.2,0.8,0.4l96.3,55.4c2.2,1.3,4,4,4,6.2v51.5
						c1.8,0.6,3.1-0.2,3.1-2.1v-52.6C292.9,222,291.1,219.2,288.9,218z"/>
					<g>
						<g class="st13">
							<path class="st14" d="M219.6,204.2l46.9,27.1c0.7,0.4,1.3,0.2,1.3-0.5l0,0c0-0.7-0.6-1.6-1.3-2l-46.9-27.1
								c-0.7-0.4-1.3-0.2-1.3,0.5l0,0C218.3,202.9,218.9,203.8,219.6,204.2z"/>
						</g>
						<g class="st13">
							<path class="st14" d="M219.6,211.4l46.9,27.1c0.7,0.4,1.3,0.2,1.3-0.5l0,0c0-0.7-0.6-1.6-1.3-2l-46.9-27.1
								c-0.7-0.4-1.3-0.2-1.3,0.5l0,0C218.3,210.1,218.9,211,219.6,211.4z"/>
						</g>
						<g class="st13">
							<path class="st15" d="M219.2,218.3l34.7,19.9c0.5,0.3,0.9,0.1,0.9-0.4v-0.7c0-0.5-0.4-1.1-0.9-1.4l-34.7-19.9
								c-0.5-0.3-0.9-0.1-0.9,0.4v0.7C218.3,217.4,218.7,218,219.2,218.3z"/>
						</g>
					</g>
				</g>
				<g>
					<path class="st16" d="M200.8,258.8v62.3c0,3.5-4.3,2.9-6.8-1.1l-7.4-11.6c-0.7-1.2-1.7-2.2-2.8-2.8L101,258.3
						c-2.2-1.2-4-4-4-6.2v-52.6c0-2.2,1.8-2.9,4-1.7l95.8,54.8C199.1,253.8,200.8,256.6,200.8,258.8z"/>
					<path class="st17" d="M194.7,264.9v62.2c0,3.5-4.3,2.9-6.8-1.1l-7.4-11.6c-0.7-1.2-1.7-2.2-2.8-2.8l-82.9-47.4
						c-2.2-1.2-4-4-4-6.2v-52.6c0-2.2,1.8-2.9,4-1.7l95.8,54.8C193,260,194.7,262.7,194.7,264.9z"/>
					<path class="st12" d="M190.8,258.7L95,203.9c-2.2-1.2-4-0.5-4,1.7v1.3c0.2,0.1,0.4,0.2,0.6,0.3l95.8,54.8c2.2,1.2,4,4,4,6.2
						v60.9c1.8,0.7,3.3,0.1,3.3-2v-62.2C194.7,262.7,193,260,190.8,258.7z"/>
					<g>
						<g class="st13">
							<path class="st14" d="M160.6,267.1l-46.4-26.5c-0.7-0.4-1.3-1.3-1.3-2l0,0c0-0.7,0.6-0.9,1.3-0.5l46.4,26.5
								c0.7,0.4,1.3,1.3,1.3,2l0,0C161.9,267.2,161.3,267.5,160.6,267.1z"/>
						</g>
						<g class="st13">
							<path class="st14" d="M160.6,274.2l-46.4-26.5c-0.7-0.4-1.3-1.3-1.3-2l0,0c0-0.7,0.6-0.9,1.3-0.5l46.4,26.5
								c0.7,0.4,1.3,1.3,1.3,2l0,0C161.9,274.4,161.3,274.6,160.6,274.2z"/>
						</g>
						<g class="st18">
							<path class="st19" d="M161,281.6l-34.7-19.8c-0.5-0.3-0.9-0.9-0.9-1.4v-0.7c0-0.5,0.4-0.7,0.9-0.4l34.7,19.8
								c0.5,0.3,0.9,0.9,0.9,1.4v0.7C161.9,281.7,161.5,281.9,161,281.6z"/>
						</g>
					</g>
				</g>
				<g>
					<path class="st20" d="M324.7,357.8l-107.6-57.4c-1.7-0.9-3.2-3.1-3.2-4.8V257c0-1.7,1.4-2.4,3.2-1.5l107.6,57.4
						c1.7,0.9,3.2,3.1,3.2,4.8v38.6C327.9,358.1,326.5,358.7,324.7,357.8z"/>
					<path class="st12" d="M324.7,312.9l-107.6-57.4c-1.7-0.9-3.2-0.3-3.2,1.5v2.1l107.3,57.3c1.7,0.9,3.2,3.1,3.2,4.8v36.5l0.3,0.1
						c1.7,0.9,3.2,0.3,3.2-1.5v-38.6C327.9,316,326.5,313.8,324.7,312.9z"/>
					<g>
						<path class="st21" d="M277.6,303.7L240,283.6c-0.5-0.3-0.9-0.8-0.9-1.3l0,0c0-0.5,0.4-0.7,0.9-0.4l37.6,20.1
							c0.5,0.3,0.9,0.8,0.9,1.3l0,0C278.5,303.7,278.1,303.9,277.6,303.7z"/>
						<path class="st21" d="M277.6,309.5l-37.6-20c-0.5-0.3-0.9-0.8-0.9-1.3l0,0c0-0.5,0.4-0.7,0.9-0.4l37.6,20.1
							c0.5,0.3,0.9,0.8,0.9,1.3l0,0C278.5,309.6,278.1,309.8,277.6,309.5z"/>
						<path class="st21" d="M277.6,315.4l-37.6-20c-0.5-0.3-0.9-0.8-0.9-1.3l0,0c0-0.5,0.4-0.7,0.9-0.4l37.6,20.1
							c0.5,0.3,0.9,0.8,0.9,1.3l0,0C278.5,315.5,278.1,315.7,277.6,315.4z"/>
						<path class="st22" d="M259.8,311.8l-20-10.7c-0.3-0.2-0.6-0.6-0.6-1v-0.5c0-0.3,0.3-0.5,0.6-0.3l20,10.7
							c0.3,0.2,0.6,0.6,0.6,1v0.5C260.4,311.8,260.1,312,259.8,311.8z"/>
					</g>
				</g>
				<g>
					<path class="st20" d="M160.4,206.7l-70.9-42c-1.7-1-3.2-3.3-3.2-5v-38.6c0-1.7,1.4-2.3,3.2-1.3l70.9,42c1.7,1,3.2,3.3,3.2,5
						v38.6C163.6,207.1,162.1,207.7,160.4,206.7z"/>
					<path class="st12" d="M160.4,161.8l-70.9-42c-1.6-0.9-2.9-0.5-3.1,0.8l69.5,41.2c1.7,1,3.2,3.3,3.2,5v38.6c0,0.2,0,0.3,0,0.5
						l1.4,0.8c1.7,1,3.2,0.5,3.2-1.3v-38.6C163.6,165,162.1,162.8,160.4,161.8z"/>
					<g>
						<path class="st23" d="M143.9,167.1l-37.6-22.2c-0.5-0.3-0.9-0.9-0.9-1.4l0,0c0-0.5,0.4-0.6,0.9-0.4l37.6,22.2
							c0.5,0.3,0.9,0.9,0.9,1.4l0,0C144.7,167.2,144.4,167.3,143.9,167.1z"/>
						<path class="st23" d="M143.9,172.9l-37.6-22.2c-0.5-0.3-0.9-0.9-0.9-1.4l0,0c0-0.5,0.4-0.6,0.9-0.4l37.6,22.2
							c0.5,0.3,0.9,0.9,0.9,1.4l0,0C144.7,173.1,144.4,173.2,143.9,172.9z"/>
						<path class="st23" d="M143.9,178.8l-37.6-22.2c-0.5-0.3-0.9-0.9-0.9-1.4l0,0c0-0.5,0.4-0.6,0.9-0.4l37.6,22.2
							c0.5,0.3,0.9,0.9,0.9,1.4l0,0C144.7,178.9,144.4,179.1,143.9,178.8z"/>
						<path class="st24" d="M126,174.2l-20-11.8c-0.3-0.2-0.6-0.7-0.6-1v-0.5c0-0.3,0.3-0.5,0.6-0.3l20,11.8c0.3,0.2,0.6,0.7,0.6,1
							v0.5C126.7,174.2,126.4,174.4,126,174.2z"/>
					</g>
				</g>
			</g>
		</g>
	</g>
</g>
<g id="Layer_3_00000180334096698561025820000000935411089370756741_">
	<g id="magnifier">
		<g>
			<path class="st25" d="M386.7,140.9l-193.1,0.9c-10.3,0-18.7-8.4-18.7-18.7l0,0c0-10.3,8.4-18.7,18.7-18.7l193.1-0.9
				c10.3,0,18.7,8.4,18.7,18.7l0,0C405.4,132.5,397,140.9,386.7,140.9z"/>
			<text transform="matrix(1 0 0 1 193.7067 134.0056)" class="st26 st27 st28">www</text>
			<g>
				<circle class="st29" cx="382" cy="121.3" r="8"/>
				<line class="st29" x1="387.2" y1="127.4" x2="392" y2="132.3"/>
			</g>
		</g>
	</g>
	<g id="Layer_5">
		
			<linearGradient id="SVGID_00000127737277632347669390000014554942503119647400_" gradientUnits="userSpaceOnUse" x1="152.1958" y1="-71.4785" x2="352.6053" y2="185.6836" gradientTransform="matrix(1 0 0 -1 0 502)">
			<stop  offset="0" style="stop-color:#425EAB"/>
			<stop  offset="0.3539" style="stop-color:#3E5FAC;stop-opacity:0.6441"/>
			<stop  offset="0.6736" style="stop-color:#3362AE;stop-opacity:0.3226"/>
			<stop  offset="0.9792" style="stop-color:#2168B3;stop-opacity:1.531410e-02"/>
			<stop  offset="0.9944" style="stop-color:#2068B3;stop-opacity:0"/>
		</linearGradient>
		<path style="fill:url(#SVGID_00000127737277632347669390000014554942503119647400_);" d="M317.3,430.6l-112.1-66.5
			c-7.1-4.2-7-14.5,0.2-18.6L316.8,283c3.3-1.8,7.2-1.8,10.5,0l112.1,63c7.2,4,7.3,14.4,0.2,18.6l-111.5,66
			C324.8,432.6,320.6,432.6,317.3,430.6z"/>
		<g>
			<g>
				<path class="st31" d="M278.5,356l10.9,31.9c0.5,1.3,2,2.4,3.5,2.4h21.5c1,0,1.7-0.5,1.9-1.3l0.6-2.3c0.2-0.7,0.8-1.1,1.7-1.1
					h21.7c1.5,0,2.3-1.1,1.9-2.4l-9.3-27.3l-0.1-5.3v-41c0-1.5-1.2-2.7-2.7-2.7h-21.5c-1,0-1.9,0.5-2.4,1.4l-1.4,2.6
					c-0.4,0.7-1.2,1.2-2.1,1.2H281c-1.5,0-2.7,1.2-2.7,2.7v35.8L278.5,356z"/>
				<path class="st32" d="M278.5,356l10.9,31.9c0.5,1.3,2,2.4,3.5,2.4h21.5c1,0,1.7-0.5,1.9-1.3l0.6-2.3c0.2-0.7,0.8-1.1,1.7-1.1
					h21.7c1.5,0,2.3-1.1,1.9-2.4l-9.3-27.3l-0.1-5.3v-41c0-1.5-1.2-2.7-2.7-2.7h-21.5c-1,0-1.9,0.5-2.4,1.4l-1.4,2.6
					c-0.4,0.7-1.2,1.2-2.1,1.2H281c-1.5,0-2.7,1.2-2.7,2.7v35.8L278.5,356z"/>
				<path class="st33" d="M278.5,356l10.9,31.9c0.5,1.3,2,2.4,3.5,2.4h21.5c1,0,1.7-0.5,1.9-1.3l0.6-2.3c0.2-0.7,0.8-1.1,1.7-1.1
					h21.7c1.5,0,2.3-1.1,1.9-2.4l-9.3-27.3L278.5,356L278.5,356z"/>
				<path class="st34" d="M278.5,356l10.9,31.9c0.5,1.3,2,2.4,3.5,2.4h21.5c1,0,1.7-0.5,1.9-1.3l0.6-2.3c0.2-0.7,0.8-1.1,1.7-1.1
					h21.7c1.5,0,2.3-1.1,1.9-2.4l-9.3-27.3L278.5,356L278.5,356z"/>
			</g>
			<polygon class="st35" points="283.7,356 327.9,356 335.9,378.7 291.8,378.7 			"/>
			<g>
				<rect x="283.7" y="320.2" class="st36" width="44.2" height="35.8"/>
			</g>
			<g>
				<polygon class="st37" points="283.7,356 327.9,356 336.8,330.2 292.7,330.2 				"/>
			</g>
			<g>
				<polygon class="st37" points="283.7,356 327.9,356 336.8,375.1 292.7,375.1 				"/>
			</g>
			<g>
				<polygon class="st36" points="283.7,356 327.9,356 342.3,346.1 298.2,346.1 				"/>
			</g>
		</g>
	</g>
	<g id="Layer_2_00000036237827183751152560000005921412628236405651_">
		<g>
			<g>
				<g>
					<path class="st10" d="M345.2,225v62.3c0,3.5,4.3,7.7,6.8,6.7l7.4-3.1c0.7-0.3,1.7-0.2,2.8,0.4l83.3,48c2.2,1.3,4,0.5,4-1.7V285
						c0-2.2-1.8-5-4-6.2l-96.3-55.4C347,222.1,345.2,222.8,345.2,225z"/>
					<path class="st11" d="M337.8,229v62.3c0,3.5,4.3,7.7,6.8,6.7l7.4-3.1c0.7-0.3,1.7-0.2,2.8,0.4l83.3,48c2.2,1.3,4,0.5,4-1.7V289
						c0-2.2-1.8-5-4-6.2l-96.3-55.4C339.6,226.1,337.8,226.9,337.8,229z"/>
					<path class="st12" d="M438.1,282.8l-96.3-55.4c-2.2-1.3-4-0.5-4,1.7v1c0.3,0.1,0.6,0.2,0.8,0.4l96.3,55.4c2.2,1.3,4,4,4,6.2
						v51.5c1.8,0.6,3.1-0.2,3.1-2.1V289C442,286.8,440.3,284,438.1,282.8z"/>
					<g>
						<g class="st13">
							<path class="st14" d="M368.8,269l46.9,27.1c0.7,0.4,1.3,0.2,1.3-0.5l0,0c0-0.7-0.6-1.6-1.3-2l-46.9-27.1
								c-0.7-0.4-1.3-0.2-1.3,0.5l0,0C367.5,267.7,368.1,268.6,368.8,269z"/>
						</g>
						<g class="st13">
							<path class="st14" d="M368.8,276.2l46.9,27.1c0.7,0.4,1.3,0.2,1.3-0.5l0,0c0-0.7-0.6-1.6-1.3-2l-46.9-27.1
								c-0.7-0.4-1.3-0.2-1.3,0.5l0,0C367.5,274.9,368.1,275.8,368.8,276.2z"/>
						</g>
						<g class="st13">
							<path class="st15" d="M368.4,283.1l34.7,19.9c0.5,0.3,0.9,0.1,0.9-0.4v-0.7c0-0.5-0.4-1.1-0.9-1.4l-34.7-19.9
								c-0.5-0.3-0.9-0.1-0.9,0.4v0.7C367.5,282.2,367.9,282.9,368.4,283.1z"/>
						</g>
					</g>
				</g>
				<g>
					<path class="st16" d="M335.1,161.7V224c0,3.5-4.3,2.9-6.8-1.1l-7.4-11.6c-0.7-1.2-1.7-2.2-2.8-2.8l-82.9-47.4
						c-2.2-1.2-4-4-4-6.2v-52.6c0-2.2,1.8-2.9,4-1.7l95.8,54.8C333.3,156.8,335.1,159.6,335.1,161.7z"/>
					<path class="st38" d="M329,167.9v62.2c0,3.5-4.3,2.9-6.8-1.1l-7.4-11.6c-0.7-1.2-1.7-2.2-2.8-2.8l-82.9-47.4
						c-2.2-1.2-4-4-4-6.2v-52.6c0-2.2,1.8-2.9,4-1.7l95.8,54.8C327.2,162.9,329,165.7,329,167.9z"/>
					<path class="st12" d="M325.1,161.6l-95.8-54.8c-2.2-1.2-4-0.5-4,1.7v1.3c0.2,0.1,0.4,0.2,0.6,0.3l95.8,54.8c2.2,1.2,4,4,4,6.2
						v61c1.8,0.7,3.3,0.1,3.3-2v-62.2C329,165.7,327.2,162.9,325.1,161.6z"/>
					<g>
						<g class="st13">
							<path class="st14" d="M294.9,170l-46.4-26.5c-0.7-0.4-1.3-1.3-1.3-2l0,0c0-0.7,0.6-0.9,1.3-0.5l46.4,26.5
								c0.7,0.4,1.3,1.3,1.3,2l0,0C296.1,170.2,295.6,170.4,294.9,170z"/>
						</g>
						<g class="st13">
							<path class="st14" d="M294.9,177.2l-46.4-26.5c-0.7-0.4-1.3-1.3-1.3-2l0,0c0-0.7,0.6-0.9,1.3-0.5l46.4,26.5
								c0.7,0.4,1.3,1.3,1.3,2l0,0C296.1,177.3,295.6,177.6,294.9,177.2z"/>
						</g>
						<g class="st18">
							<path class="st19" d="M295.2,184.5l-34.7-19.8c-0.5-0.3-0.9-0.9-0.9-1.4v-0.7c0-0.5,0.4-0.7,0.9-0.4l34.7,19.8
								c0.5,0.3,0.9,0.9,0.9,1.4v0.7C296.1,184.6,295.7,184.8,295.2,184.5z"/>
						</g>
					</g>
				</g>
				<g>
					<path class="st20" d="M454.1,270.4L346.5,213c-1.7-0.9-3.2-3.1-3.2-4.8v-38.6c0-1.7,1.4-2.4,3.2-1.5l107.6,57.4
						c1.7,0.9,3.2,3.1,3.2,4.8v38.6C457.3,270.7,455.9,271.3,454.1,270.4z"/>
					<path class="st12" d="M454.1,225.5l-107.6-57.4c-1.7-0.9-3.2-0.3-3.2,1.5v2.1L450.6,229c1.7,0.9,3.2,3.1,3.2,4.8v36.5l0.3,0.1
						c1.7,0.9,3.2,0.3,3.2-1.5v-38.6C457.3,228.6,455.9,226.4,454.1,225.5z"/>
					<g>
						<path class="st21" d="M407,216.3l-37.6-20.1c-0.5-0.3-0.9-0.8-0.9-1.3l0,0c0-0.5,0.4-0.7,0.9-0.4l37.6,20.1
							c0.5,0.3,0.9,0.8,0.9,1.3l0,0C407.9,216.4,407.5,216.5,407,216.3z"/>
						<path class="st21" d="M407,222.2l-37.6-20.1c-0.5-0.3-0.9-0.8-0.9-1.3l0,0c0-0.5,0.4-0.7,0.9-0.4l37.6,20.1
							c0.5,0.3,0.9,0.8,0.9,1.3l0,0C407.9,222.2,407.5,222.4,407,222.2z"/>
						<path class="st21" d="M407,228l-37.6-20.1c-0.5-0.3-0.9-0.8-0.9-1.3l0,0c0-0.5,0.4-0.7,0.9-0.4l37.6,20.1
							c0.5,0.3,0.9,0.8,0.9,1.3l0,0C407.9,228.1,407.5,228.3,407,228z"/>
						<path class="st22" d="M389.2,224.4l-20-10.7c-0.3-0.2-0.6-0.6-0.6-1v-0.5c0-0.3,0.3-0.5,0.6-0.3l20,10.7
							c0.3,0.2,0.6,0.6,0.6,1v0.5C389.8,224.5,389.5,224.6,389.2,224.4z"/>
					</g>
				</g>
				<g>
					<path class="st20" d="M322.3,280.7l-70.9-42c-1.7-1-3.2-3.3-3.2-5v-38.6c0-1.7,1.4-2.3,3.2-1.3l70.9,42c1.7,1,3.2,3.3,3.2,5
						v38.6C325.4,281.1,324,281.7,322.3,280.7z"/>
					<path class="st12" d="M322.3,235.8l-70.9-42c-1.6-0.9-2.9-0.5-3.1,0.8l69.5,41.2c1.7,1,3.2,3.3,3.2,5v38.6c0,0.2,0,0.3,0,0.5
						l1.4,0.8c1.7,1,3.2,0.5,3.2-1.3v-38.6C325.4,239.1,324,236.8,322.3,235.8z"/>
					<g>
						<path class="st23" d="M305.8,241.1l-37.6-22.2c-0.5-0.3-0.9-0.9-0.9-1.4l0,0c0-0.5,0.4-0.6,0.9-0.4l37.6,22.2
							c0.5,0.3,0.9,0.9,0.9,1.4l0,0C306.6,241.2,306.2,241.4,305.8,241.1z"/>
						<path class="st23" d="M305.8,247l-37.6-22.2c-0.5-0.3-0.9-0.9-0.9-1.4l0,0c0-0.5,0.4-0.6,0.9-0.4l37.6,22.2
							c0.5,0.3,0.9,0.9,0.9,1.4l0,0C306.6,247.1,306.2,247.2,305.8,247z"/>
						<path class="st23" d="M305.8,252.8l-37.6-22.2c-0.5-0.3-0.9-0.9-0.9-1.4l0,0c0-0.5,0.4-0.6,0.9-0.4l37.6,22.2
							c0.5,0.3,0.9,0.9,0.9,1.4l0,0C306.6,253,306.2,253.1,305.8,252.8z"/>
						<path class="st24" d="M287.9,248.2l-20-11.8c-0.3-0.2-0.6-0.7-0.6-1v-0.5c0-0.3,0.3-0.5,0.6-0.3l20,11.8
							c0.3,0.2,0.6,0.7,0.6,1v0.5C288.5,248.3,288.3,248.4,287.9,248.2z"/>
					</g>
				</g>
			</g>
		</g>
	</g>
	<g class="st39">
		<g>
			<path class="st31" d="M177,214.9l-1.2-2.2c-0.4-0.7-1.2-1.2-1.9-1.2h-17.4c-1.2,0-2.2,1-2.2,2.2v33.3c0,1.2,1,2.3,2.3,2.3h39.7
				c1.2,0,2.3-1,2.3-2.3V218c0-1.2-1-2.2-2.2-2.2h-17.6C178,215.8,177.3,215.5,177,214.9z"/>
			<path class="st34" d="M177,214.9l-1.2-2.2c-0.4-0.7-1.2-1.2-1.9-1.2h-17.4c-1.2,0-2.2,1-2.2,2.2v33.3c0,1.2,1,2.3,2.3,2.3h39.7
				c1.2,0,2.3-1,2.3-2.3V218c0-1.2-1-2.2-2.2-2.2h-17.6C178,215.8,177.3,215.5,177,214.9z"/>
		</g>
		<g>
			<rect x="159.1" y="217.2" class="st36" width="33.8" height="25.3"/>
		</g>
		<g>
			<rect x="156.6" y="219.7" class="st37" width="38.7" height="28.9"/>
		</g>
		<g>
			<g>
				<path class="st31" d="M202.4,220.4c-9.3,0-13.9,0-23.2,0c-1.1,0-2.1,0.4-2.6,1c-0.6,0.7-0.9,1.1-1.5,1.8
					c-0.4,0.5-1.2,0.8-2.2,0.8c-9.1,0-13.6,0-22.7,0c-1.6,0-2.6,0.8-2.3,1.9c2.2,8.6,3.3,12.9,5.5,21.5c0.2,1.1,1.5,2,2.8,2
					c13.1,0,26.2,0,39.3,0c1.2,0,2.5-0.9,2.8-2c2.2-8.4,4.3-16.8,6.5-25.1C205,221.2,203.9,220.4,202.4,220.4z"/>
			</g>
			<g class="st40">
				<path class="st41" d="M202.4,220.4c-9.3,0-13.9,0-23.2,0c-1.1,0-2.1,0.4-2.6,1c-0.6,0.7-0.9,1.1-1.5,1.8
					c-0.4,0.5-1.2,0.8-2.2,0.8c-9.1,0-13.6,0-22.7,0c-1.6,0-2.6,0.8-2.3,1.9c2.2,8.6,3.3,12.9,5.5,21.5c0.2,1.1,1.5,2,2.8,2
					c13.1,0,26.2,0,39.3,0c1.2,0,2.5-0.9,2.8-2c2.2-8.4,4.3-16.8,6.5-25.1C205,221.2,203.9,220.4,202.4,220.4z"/>
			</g>
		</g>
	</g>
	<g class="st42">
		<g>
			<path class="st31" d="M177,278.5l-1.2-2.2c-0.4-0.7-1.2-1.2-1.9-1.2h-17.4c-1.2,0-2.2,1-2.2,2.2v33.3c0,1.2,1,2.3,2.3,2.3h39.7
				c1.2,0,2.3-1,2.3-2.3v-29.1c0-1.2-1-2.2-2.2-2.2h-17.6C178,279.4,177.3,279.1,177,278.5z"/>
			<path class="st34" d="M177,278.5l-1.2-2.2c-0.4-0.7-1.2-1.2-1.9-1.2h-17.4c-1.2,0-2.2,1-2.2,2.2v33.3c0,1.2,1,2.3,2.3,2.3h39.7
				c1.2,0,2.3-1,2.3-2.3v-29.1c0-1.2-1-2.2-2.2-2.2h-17.6C178,279.4,177.3,279.1,177,278.5z"/>
		</g>
		<g>
			<rect x="159.1" y="280.8" class="st36" width="33.8" height="25.3"/>
		</g>
		<g>
			<rect x="156.7" y="283.3" class="st37" width="38.7" height="28.9"/>
		</g>
		<g>
			<g>
				<path class="st31" d="M202.4,284c-9.3,0-13.9,0-23.2,0c-1.1,0-2.1,0.4-2.6,1c-0.6,0.7-0.9,1.1-1.5,1.8c-0.4,0.5-1.2,0.8-2.2,0.8
					c-9.1,0-13.6,0-22.7,0c-1.6,0-2.6,0.8-2.3,1.9c2.2,8.6,3.3,12.9,5.5,21.5c0.2,1.1,1.5,2,2.8,2c13.1,0,26.2,0,39.3,0
					c1.2,0,2.5-0.9,2.8-2c2.2-8.4,4.3-16.8,6.5-25.1C205.1,284.8,204,284,202.4,284z"/>
			</g>
			<g class="st43">
				<path class="st41" d="M202.4,284c-9.3,0-13.9,0-23.2,0c-1.1,0-2.1,0.4-2.6,1c-0.6,0.7-0.9,1.1-1.5,1.8c-0.4,0.5-1.2,0.8-2.2,0.8
					c-9.1,0-13.6,0-22.7,0c-1.6,0-2.6,0.8-2.3,1.9c2.2,8.6,3.3,12.9,5.5,21.5c0.2,1.1,1.5,2,2.8,2c13.1,0,26.2,0,39.3,0
					c1.2,0,2.5-0.9,2.8-2c2.2-8.4,4.3-16.8,6.5-25.1C205.1,284.8,204,284,202.4,284z"/>
			</g>
		</g>
	</g>
</g>
</svg>
